<svg version="1.1" id="Layer_1" xmlns="http://www.w3.org/2000/svg" xmlns:xlink="http://www.w3.org/1999/xlink" x="0px" y="0px"
	 width="100%" viewBox="0 0 436 288" enable-background="new 0 0 436 288" xml:space="preserve">
<path fill="#FFFFFF" opacity="1.000000" stroke="none" 
	d="
M322.000000,289.000000 
	C214.666672,289.000000 107.833336,289.000000 1.000000,289.000000 
	C1.000000,193.000000 1.000000,97.000000 1.000000,1.000000 
	C146.333328,1.000000 291.666656,1.000000 437.000000,1.000000 
	C437.000000,97.000000 437.000000,193.000000 437.000000,289.000000 
	C398.833344,289.000000 360.666656,289.000000 322.000000,289.000000 
M219.963654,213.186279 
	C218.072510,222.331055 222.739395,229.386948 232.054825,230.860138 
	C242.484192,232.509506 253.135025,232.707520 263.618683,234.078339 
	C274.738403,235.532333 286.006989,236.753021 296.794647,239.633286 
	C313.906342,244.201996 326.868134,256.051666 340.426849,266.761810 
	C346.344025,271.435822 352.777618,275.645264 359.486237,279.066437 
	C364.567871,281.657867 370.070312,279.296631 373.564575,274.759277 
	C382.226776,263.511261 385.300629,250.934418 381.127075,237.319016 
	C375.679962,219.548981 369.756317,201.915497 363.621246,184.368881 
	C358.728638,170.375824 349.413269,160.188278 335.609802,154.273605 
	C325.501251,149.942200 315.137695,147.277054 304.189941,150.034058 
	C298.119537,151.562805 291.840485,153.120575 286.370758,156.016357 
	C269.942322,164.713943 253.700699,173.797546 237.708618,183.274643 
	C226.891632,189.684952 221.306580,199.851654 219.963654,213.186279 
M221.997208,177.623062 
	C221.338913,167.363220 218.592896,157.867706 210.431900,151.021622 
	C195.849991,138.789200 181.150726,126.688759 166.267685,114.825241 
	C147.688416,100.015396 127.287155,99.151688 106.459450,108.984352 
	C94.693237,114.539131 87.060829,124.852448 80.960114,136.141861 
	C75.202126,146.797028 69.648575,157.562668 63.891880,168.218536 
	C58.379467,178.422241 53.250488,188.910202 55.201313,200.824112 
	C56.271210,207.358139 58.524445,214.033127 61.762081,219.790985 
	C65.629333,226.668549 74.599869,226.999588 83.780663,222.460617 
	C97.599678,215.628510 110.831749,207.607056 124.664841,200.806168 
	C139.793884,193.368149 156.179016,192.032806 172.775024,193.177231 
	C183.486511,193.915863 194.155807,195.525818 204.871994,195.867233 
	C216.582825,196.240326 223.044067,189.828568 221.997208,177.623062 
M306.835785,63.070732 
	C304.970215,64.141365 302.892303,64.959473 301.272095,66.321892 
	C285.920715,79.230553 282.409393,105.758820 293.741241,122.513008 
	C300.488037,132.488144 313.456573,133.787460 322.109558,125.397003 
	C336.105682,111.825562 338.933105,95.295059 333.438690,77.458900 
	C330.058014,66.484406 321.306396,58.203899 306.835785,63.070732 
M61.513775,93.012276 
	C62.338921,93.834465 63.073589,94.780762 64.003769,95.458878 
	C70.462341,100.167336 77.693680,102.935638 85.435295,100.069153 
	C92.790146,97.345856 97.100555,91.235123 97.923050,83.382278 
	C99.684158,66.567810 94.375595,52.263691 81.532516,41.092983 
	C72.415627,33.163250 56.254269,30.814636 49.111225,44.581848 
	C47.343258,47.989361 46.282497,52.108086 46.130951,55.948589 
	C45.565517,70.278015 50.435181,82.607552 61.513775,93.012276 
M394.855286,119.937370 
	C394.583618,115.654442 394.667297,111.313087 393.974518,107.099403 
	C391.794922,93.843010 379.648163,88.451599 368.608673,96.003059 
	C355.919220,104.683167 351.174072,117.438477 352.209869,132.264938 
	C352.692261,139.169907 355.240662,145.914017 362.585541,148.611069 
	C370.496368,151.515945 377.011383,148.311722 382.771057,142.773758 
	C389.107239,136.681534 392.682312,129.192963 394.855286,119.937370 
M262.858612,118.032906 
	C262.133911,116.178932 261.443146,114.310844 260.679047,112.473251 
	C255.135483,99.141403 238.273254,95.452301 230.596863,106.148376 
	C221.258118,119.160698 219.750000,133.282928 227.835373,147.326584 
	C235.239471,160.186874 249.467087,161.434967 258.025330,148.860962 
	C264.264069,139.694885 265.309174,129.516876 262.858612,118.032906 
M149.527603,34.030216 
	C148.227051,32.738621 147.005417,31.354158 145.612976,30.170692 
	C137.382874,23.175762 125.752975,25.122234 120.888870,34.266914 
	C112.823303,49.430454 117.914772,71.115288 131.937668,81.324348 
	C138.532822,86.125801 148.537689,84.407547 153.139389,77.740898 
	C161.798172,65.196632 159.549850,47.311775 149.527603,34.030216 
M36.198456,158.570343 
	C46.171154,159.946564 55.159691,154.157578 55.966839,145.694336 
	C57.468430,129.949692 51.112331,117.884499 38.227875,109.180145 
	C31.550907,104.669373 21.667070,104.662201 16.129339,108.988617 
	C10.438592,113.434586 9.726333,119.691795 9.927101,126.468300 
	C10.318633,139.683624 22.889170,155.634293 36.198456,158.570343 
M176.010803,77.631935 
	C176.879196,81.478287 177.323395,85.486786 178.716873,89.132431 
	C180.734268,94.410408 186.957092,96.847748 192.294540,95.051659 
	C202.450317,91.634171 208.161591,77.760170 203.146408,66.859947 
	C201.529602,63.345940 198.006012,59.546673 194.503067,58.330040 
	C188.969864,56.408264 183.587952,58.735378 180.830811,64.470192 
	C178.929718,68.424500 177.619873,72.663055 176.010803,77.631935 
M397.526886,156.973953 
	C392.473602,161.406311 388.813904,166.564087 389.010803,173.660660 
	C389.207886,180.764908 393.601440,184.520508 400.679413,185.113571 
	C409.197144,185.827271 419.978607,175.915497 421.864532,167.561188 
	C423.610565,159.826813 420.614380,153.663025 414.886261,151.964371 
	C408.319458,150.017014 402.897217,152.121445 397.526886,156.973953 
z"/>
<path fill="#F5F5EF" opacity="1.000000" stroke="none" 
	d="
M219.979248,212.764160 
	C221.306580,199.851654 226.891632,189.684952 237.708618,183.274643 
	C253.700699,173.797546 269.942322,164.713943 286.370758,156.016357 
	C291.840485,153.120575 298.119537,151.562805 304.189941,150.034058 
	C315.137695,147.277054 325.501251,149.942200 335.609802,154.273605 
	C349.413269,160.188278 358.728638,170.375824 363.621246,184.368881 
	C369.756317,201.915497 375.679962,219.548981 381.127075,237.319016 
	C385.300629,250.934418 382.226776,263.511261 373.564575,274.759277 
	C370.070312,279.296631 364.567871,281.657867 359.486237,279.066437 
	C352.777618,275.645264 346.344025,271.435822 340.426849,266.761810 
	C326.868134,256.051666 313.906342,244.201996 296.794647,239.633286 
	C286.006989,236.753021 274.738403,235.532333 263.618683,234.078339 
	C253.135025,232.707520 242.484192,232.509506 232.054825,230.860138 
	C222.739395,229.386948 218.072510,222.331055 219.979248,212.764160 
M370.489288,219.075241 
	C367.962189,211.156555 365.976776,203.009720 362.763397,195.380051 
	C359.182343,186.877228 355.811951,177.730286 350.014374,170.824432 
	C334.933716,152.860901 310.694214,148.671677 289.156433,159.570267 
	C273.723999,167.379395 258.679688,175.986145 243.698257,184.645432 
	C233.457275,190.564743 226.689392,199.269547 224.507416,211.307114 
	C222.853088,220.433716 225.915146,225.727036 235.058121,226.918869 
	C243.621216,228.035110 252.270309,228.841629 260.898773,229.042099 
	C289.401215,229.704315 314.732727,238.219315 336.259613,257.485962 
	C342.918152,263.445343 350.345947,268.651428 357.878052,273.492004 
	C363.071869,276.829865 367.500000,275.473938 370.912445,270.580963 
	C376.863037,262.048676 379.891724,252.653687 377.370758,242.267960 
	C375.532043,234.692780 373.008270,227.283875 370.489288,219.075241 
z"/>
<path fill="#F5F4EE" opacity="1.000000" stroke="none" 
	d="
M221.997345,178.081833 
	C223.044067,189.828568 216.582825,196.240326 204.871994,195.867233 
	C194.155807,195.525818 183.486511,193.915863 172.775024,193.177231 
	C156.179016,192.032806 139.793884,193.368149 124.664841,200.806168 
	C110.831749,207.607056 97.599678,215.628510 83.780663,222.460617 
	C74.599869,226.999588 65.629333,226.668549 61.762081,219.790985 
	C58.524445,214.033127 56.271210,207.358139 55.201313,200.824112 
	C53.250488,188.910202 58.379467,178.422241 63.891880,168.218536 
	C69.648575,157.562668 75.202126,146.797028 80.960114,136.141861 
	C87.060829,124.852448 94.693237,114.539131 106.459450,108.984352 
	C127.287155,99.151688 147.688416,100.015396 166.267685,114.825241 
	C181.150726,126.688759 195.849991,138.789200 210.431900,151.021622 
	C218.592896,157.867706 221.338913,167.363220 221.997345,178.081833 
M91.641846,213.179626 
	C96.847954,210.214249 102.153793,207.409805 107.243103,204.255951 
	C130.818665,189.646301 156.326981,185.705582 183.508774,189.634354 
	C191.536285,190.794601 199.756607,190.971268 207.887299,190.955139 
	C214.252380,190.942520 216.968567,187.516785 217.243759,181.097076 
	C217.737488,169.579208 214.177887,159.428986 205.340698,152.114487 
	C189.708130,139.175522 174.140350,126.005814 157.431046,114.559471 
	C137.279770,100.755295 106.800819,106.066231 93.292458,126.498093 
	C81.245041,144.720200 71.605881,164.613312 61.855118,184.241516 
	C57.049736,193.914719 58.768990,204.413315 63.423386,214.166214 
	C65.996063,219.557037 69.848030,221.832001 75.516762,220.134964 
	C80.859299,218.535553 85.861427,215.799088 91.641846,213.179626 
z"/>
<path fill="#F6F5EF" opacity="1.000000" stroke="none" 
	d="
M307.193329,62.913612 
	C321.306396,58.203899 330.058014,66.484406 333.438690,77.458900 
	C338.933105,95.295059 336.105682,111.825562 322.109558,125.397003 
	C313.456573,133.787460 300.488037,132.488144 293.741241,122.513008 
	C282.409393,105.758820 285.920715,79.230553 301.272095,66.321892 
	C302.892303,64.959473 304.970215,64.141365 307.193329,62.913612 
M329.505463,104.772957 
	C331.972870,94.311584 332.413696,84.012833 326.767395,74.301567 
	C321.346008,64.977097 311.809174,63.364769 303.626312,70.308487 
	C291.689301,80.437859 287.982697,104.941383 296.384857,118.180290 
	C302.588348,127.954926 313.535950,129.094162 320.928345,120.122559 
	C324.432800,115.869453 326.501923,110.433662 329.505463,104.772957 
z"/>
<path fill="#F5F5EF" opacity="1.000000" stroke="none" 
	d="
M61.262001,92.760567 
	C50.435181,82.607552 45.565517,70.278015 46.130951,55.948589 
	C46.282497,52.108086 47.343258,47.989361 49.111225,44.581848 
	C56.254269,30.814636 72.415627,33.163250 81.532516,41.092983 
	C94.375595,52.263691 99.684158,66.567810 97.923050,83.382278 
	C97.100555,91.235123 92.790146,97.345856 85.435295,100.069153 
	C77.693680,102.935638 70.462341,100.167336 64.003769,95.458878 
	C63.073589,94.780762 62.338921,93.834465 61.262001,92.760567 
M90.181458,60.461933 
	C86.286438,52.144497 81.194328,44.920864 72.454620,41.017540 
	C62.094364,36.390453 52.656052,41.340790 51.119961,52.634811 
	C49.029610,68.003990 54.378044,80.894279 65.869728,90.972130 
	C71.125580,95.581360 77.685066,98.247032 84.807953,95.204475 
	C91.956696,92.150871 93.778778,85.354897 93.685509,78.633087 
	C93.604454,72.792168 91.651352,66.977226 90.181458,60.461933 
z"/>
<path fill="#F5F4EE" opacity="1.000000" stroke="none" 
	d="
M394.717865,120.350143 
	C392.682312,129.192963 389.107239,136.681534 382.771057,142.773758 
	C377.011383,148.311722 370.496368,151.515945 362.585541,148.611069 
	C355.240662,145.914017 352.692261,139.169907 352.209869,132.264938 
	C351.174072,117.438477 355.919220,104.683167 368.608673,96.003059 
	C379.648163,88.451599 391.794922,93.843010 393.974518,107.099403 
	C394.667297,111.313087 394.583618,115.654442 394.717865,120.350143 
M379.407806,139.956741 
	C388.350525,130.518280 392.395172,119.506577 389.262360,106.627724 
	C387.123993,97.837082 379.754974,94.956543 371.930634,99.319252 
	C360.278625,105.816177 353.353271,124.870796 358.110626,137.344009 
	C360.840302,144.500931 367.476440,147.038757 374.279205,143.443115 
	C375.885895,142.593857 377.331329,141.439484 379.407806,139.956741 
z"/>
<path fill="#F5F5EF" opacity="1.000000" stroke="none" 
	d="
M262.914429,118.445374 
	C265.309174,129.516876 264.264069,139.694885 258.025330,148.860962 
	C249.467087,161.434967 235.239471,160.186874 227.835373,147.326584 
	C219.750000,133.282928 221.258118,119.160698 230.596863,106.148376 
	C238.273254,95.452301 255.135483,99.141403 260.679047,112.473251 
	C261.443146,114.310844 262.133911,116.178932 262.914429,118.445374 
M230.813675,143.482574 
	C237.577957,154.985107 247.927368,156.326401 254.271179,146.257309 
	C261.132690,135.366516 261.206085,123.915314 255.308319,112.607201 
	C252.838745,107.872131 248.987946,104.455887 243.029037,104.699043 
	C237.333511,104.931458 233.955322,108.455605 231.517929,113.036682 
	C226.350372,122.749153 226.248688,132.718185 230.813675,143.482574 
z"/>
<path fill="#F5F5EF" opacity="1.000000" stroke="none" 
	d="
M149.781738,34.285149 
	C159.549850,47.311775 161.798172,65.196632 153.139389,77.740898 
	C148.537689,84.407547 138.532822,86.125801 131.937668,81.324348 
	C117.914772,71.115288 112.823303,49.430454 120.888870,34.266914 
	C125.752975,25.122234 137.382874,23.175762 145.612976,30.170692 
	C147.005417,31.354158 148.227051,32.738621 149.781738,34.285149 
M152.332642,49.358913 
	C150.437500,42.831936 147.535309,36.913235 141.748978,32.938206 
	C135.758728,28.823112 129.346146,29.916731 125.665703,35.512459 
	C117.998306,47.169895 122.394058,69.286125 133.911896,77.001343 
	C140.654373,81.517792 147.894791,79.441788 151.208130,72.015411 
	C154.383469,64.898323 154.818054,57.592186 152.332642,49.358913 
z"/>
<path fill="#F5F5EF" opacity="1.000000" stroke="none" 
	d="
M35.811356,158.414795 
	C22.889170,155.634293 10.318633,139.683624 9.927101,126.468300 
	C9.726333,119.691795 10.438592,113.434586 16.129339,108.988617 
	C21.667070,104.662201 31.550907,104.669373 38.227875,109.180145 
	C51.112331,117.884499 57.468430,129.949692 55.966839,145.694336 
	C55.159691,154.157578 46.171154,159.946564 35.811356,158.414795 
M15.643931,117.433762 
	C11.105660,131.017197 21.881704,150.489899 35.786942,153.832916 
	C44.271904,155.872818 50.889660,151.360779 51.886913,142.855804 
	C53.267529,131.081360 43.375576,115.337967 32.147598,111.439995 
	C24.622597,108.827568 19.865267,110.384933 15.643931,117.433762 
z"/>
<path fill="#F6F5EF" opacity="1.000000" stroke="none" 
	d="
M176.028290,77.203255 
	C177.619873,72.663055 178.929718,68.424500 180.830811,64.470192 
	C183.587952,58.735378 188.969864,56.408264 194.503067,58.330040 
	C198.006012,59.546673 201.529602,63.345940 203.146408,66.859947 
	C208.161591,77.760170 202.450317,91.634171 192.294540,95.051659 
	C186.957092,96.847748 180.734268,94.410408 178.716873,89.132431 
	C177.323395,85.486786 176.879196,81.478287 176.028290,77.203255 
M190.882584,62.204399 
	C179.794861,66.230103 179.183365,80.807747 182.815109,87.137848 
	C185.516357,91.846054 190.647324,92.572617 194.550507,88.703209 
	C200.333771,82.970001 201.304947,76.007645 199.034515,68.432587 
	C197.936569,64.769417 195.662704,62.380867 190.882584,62.204399 
z"/>
<path fill="#F6F5EF" opacity="1.000000" stroke="none" 
	d="
M397.783752,156.717255 
	C402.897217,152.121445 408.319458,150.017014 414.886261,151.964371 
	C420.614380,153.663025 423.610565,159.826813 421.864532,167.561188 
	C419.978607,175.915497 409.197144,185.827271 400.679413,185.113571 
	C393.601440,184.520508 389.207886,180.764908 389.010803,173.660660 
	C388.813904,166.564087 392.473602,161.406311 397.783752,156.717255 
M414.705872,172.057602 
	C415.606995,170.108322 416.782227,168.236664 417.359924,166.195831 
	C419.439850,158.848328 414.938446,154.338104 407.563995,156.223419 
	C400.415405,158.050995 393.854431,165.918106 393.740723,172.798630 
	C393.641388,178.811996 397.437195,182.320221 402.977203,180.196747 
	C407.097412,178.617477 410.523865,175.228271 414.705872,172.057602 
z"/>
<path fill="#6095AC" opacity="1.000000" stroke="none" 
	d="
M370.639587,219.438034 
	C373.008270,227.283875 375.532043,234.692780 377.370758,242.267960 
	C379.891724,252.653687 376.863037,262.048676 370.912445,270.580963 
	C367.500000,275.473938 363.071869,276.829865 357.878052,273.492004 
	C350.345947,268.651428 342.918152,263.445343 336.259613,257.485962 
	C314.732727,238.219315 289.401215,229.704315 260.898773,229.042099 
	C252.270309,228.841629 243.621216,228.035110 235.058121,226.918869 
	C225.915146,225.727036 222.853088,220.433716 224.507416,211.307114 
	C226.689392,199.269547 233.457275,190.564743 243.698257,184.645432 
	C258.679688,175.986145 273.723999,167.379395 289.156433,159.570267 
	C310.694214,148.671677 334.933716,152.860901 350.014374,170.824432 
	C355.811951,177.730286 359.182343,186.877228 362.763397,195.380051 
	C365.976776,203.009720 367.962189,211.156555 370.639587,219.438034 
z"/>
<path fill="#6095AC" opacity="1.000000" stroke="none" 
	d="
M91.327576,213.371231 
	C85.861427,215.799088 80.859299,218.535553 75.516762,220.134964 
	C69.848030,221.832001 65.996063,219.557037 63.423386,214.166214 
	C58.768990,204.413315 57.049736,193.914719 61.855118,184.241516 
	C71.605881,164.613312 81.245041,144.720200 93.292458,126.498093 
	C106.800819,106.066231 137.279770,100.755295 157.431046,114.559471 
	C174.140350,126.005814 189.708130,139.175522 205.340698,152.114487 
	C214.177887,159.428986 217.737488,169.579208 217.243759,181.097076 
	C216.968567,187.516785 214.252380,190.942520 207.887299,190.955139 
	C199.756607,190.971268 191.536285,190.794601 183.508774,189.634354 
	C156.326981,185.705582 130.818665,189.646301 107.243103,204.255951 
	C102.153793,207.409805 96.847954,210.214249 91.327576,213.371231 
z"/>
<path fill="#6096AD" opacity="1.000000" stroke="none" 
	d="
M329.363403,105.153320 
	C326.501923,110.433662 324.432800,115.869453 320.928345,120.122559 
	C313.535950,129.094162 302.588348,127.954926 296.384857,118.180290 
	C287.982697,104.941383 291.689301,80.437859 303.626312,70.308487 
	C311.809174,63.364769 321.346008,64.977097 326.767395,74.301567 
	C332.413696,84.012833 331.972870,94.311584 329.363403,105.153320 
z"/>
<path fill="#6196AD" opacity="1.000000" stroke="none" 
	d="
M90.353508,60.806370 
	C91.651352,66.977226 93.604454,72.792168 93.685509,78.633087 
	C93.778778,85.354897 91.956696,92.150871 84.807953,95.204475 
	C77.685066,98.247032 71.125580,95.581360 65.869728,90.972130 
	C54.378044,80.894279 49.029610,68.003990 51.119961,52.634811 
	C52.656052,41.340790 62.094364,36.390453 72.454620,41.017540 
	C81.194328,44.920864 86.286438,52.144497 90.353508,60.806370 
z"/>
<path fill="#6196AD" opacity="1.000000" stroke="none" 
	d="
M379.129395,140.191101 
	C377.331329,141.439484 375.885895,142.593857 374.279205,143.443115 
	C367.476440,147.038757 360.840302,144.500931 358.110626,137.344009 
	C353.353271,124.870796 360.278625,105.816177 371.930634,99.319252 
	C379.754974,94.956543 387.123993,97.837082 389.262360,106.627724 
	C392.395172,119.506577 388.350525,130.518280 379.129395,140.191101 
z"/>
<path fill="#6196AD" opacity="1.000000" stroke="none" 
	d="
M230.636444,143.142700 
	C226.248688,132.718185 226.350372,122.749153 231.517929,113.036682 
	C233.955322,108.455605 237.333511,104.931458 243.029037,104.699043 
	C248.987946,104.455887 252.838745,107.872131 255.308319,112.607201 
	C261.206085,123.915314 261.132690,135.366516 254.271179,146.257309 
	C247.927368,156.326401 237.577957,154.985107 230.636444,143.142700 
z"/>
<path fill="#6196AD" opacity="1.000000" stroke="none" 
	d="
M152.478394,49.740417 
	C154.818054,57.592186 154.383469,64.898323 151.208130,72.015411 
	C147.894791,79.441788 140.654373,81.517792 133.911896,77.001343 
	C122.394058,69.286125 117.998306,47.169895 125.665703,35.512459 
	C129.346146,29.916731 135.758728,28.823112 141.748978,32.938206 
	C147.535309,36.913235 150.437500,42.831936 152.478394,49.740417 
z"/>
<path fill="#6196AD" opacity="1.000000" stroke="none" 
	d="
M15.808997,117.084167 
	C19.865267,110.384933 24.622597,108.827568 32.147598,111.439995 
	C43.375576,115.337967 53.267529,131.081360 51.886913,142.855804 
	C50.889660,151.360779 44.271904,155.872818 35.786942,153.832916 
	C21.881704,150.489899 11.105660,131.017197 15.808997,117.084167 
z"/>
<path fill="#6196AD" opacity="1.000000" stroke="none" 
	d="
M191.254593,62.156662 
	C195.662704,62.380867 197.936569,64.769417 199.034515,68.432587 
	C201.304947,76.007645 200.333771,82.970001 194.550507,88.703209 
	C190.647324,92.572617 185.516357,91.846054 182.815109,87.137848 
	C179.183365,80.807747 179.794861,66.230103 191.254593,62.156662 
z"/>
<path fill="#6297AE" opacity="1.000000" stroke="none" 
	d="
M414.482605,172.351395 
	C410.523865,175.228271 407.097412,178.617477 402.977203,180.196747 
	C397.437195,182.320221 393.641388,178.811996 393.740723,172.798630 
	C393.854431,165.918106 400.415405,158.050995 407.563995,156.223419 
	C414.938446,154.338104 419.439850,158.848328 417.359924,166.195831 
	C416.782227,168.236664 415.606995,170.108322 414.482605,172.351395 
z"/>
</svg>