<svg version="1.1" id="Layer_1" xmlns="http://www.w3.org/2000/svg" xmlns:xlink="http://www.w3.org/1999/xlink" x="0px" y="0px"
	 width="150px" viewBox="0 0 226 200" enable-background="new 0 0 226 200" xml:space="preserve">
<path fill="#FFFFFF" opacity="1.000000" stroke="none" 
	d="
M141.000000,201.000000 
	C94.000000,201.000000 47.500004,201.000000 1.000006,201.000000 
	C1.000004,134.333344 1.000004,67.666679 1.000002,1.000015 
	C76.333321,1.000010 151.666641,1.000010 226.999969,1.000005 
	C226.999985,67.666649 226.999985,134.333298 227.000000,200.999969 
	C198.500000,201.000000 170.000000,201.000000 141.000000,201.000000 
M105.851318,91.158119 
	C95.903137,94.285431 87.694214,100.208443 80.872971,107.833954 
	C71.269966,118.569214 62.113602,129.705200 52.812260,140.708740 
	C45.309227,149.584854 40.180923,159.483765 41.051174,171.484467 
	C42.059967,185.395660 47.702927,194.105331 63.174042,190.107986 
	C71.339798,187.998154 79.521416,185.864838 87.522018,183.216858 
	C109.715912,175.871231 131.877243,174.508057 154.320129,182.149979 
	C163.567062,185.298615 172.962982,188.062515 182.407501,190.561722 
	C190.304245,192.651367 198.146805,188.876129 199.732162,182.061249 
	C202.929550,168.316681 201.362793,155.471466 191.772964,144.176086 
	C182.344666,133.070984 173.000107,121.862823 164.227829,110.240234 
	C150.898697,92.580231 127.833496,84.582916 105.851318,91.158119 
M105.238159,64.602188 
	C110.983437,47.988453 107.611794,33.123363 95.809296,20.455864 
	C85.211067,9.080897 68.116684,12.269723 63.287819,28.105097 
	C58.597233,43.487034 61.638176,57.105400 71.035713,69.289665 
	C80.997223,82.205154 99.187592,81.800484 105.238159,64.602188 
M24.499031,115.996613 
	C25.559464,117.055351 26.516949,118.248604 27.696690,119.151451 
	C36.725216,126.060913 48.803715,124.197739 53.397583,114.563141 
	C59.774780,101.188416 52.293438,80.319298 40.030750,73.568604 
	C29.810883,67.942490 20.945345,70.806740 16.345938,81.496902 
	C12.482721,90.475983 14.530198,106.360901 24.499031,115.996613 
M157.390564,22.938967 
	C150.377228,17.435923 140.046890,19.688850 135.288605,26.390215 
	C126.699112,38.487270 126.591476,56.563164 135.308258,68.543762 
	C141.216751,76.664566 152.992477,77.232353 159.556747,69.712944 
	C170.148331,57.580223 169.367081,35.318451 157.390564,22.938967 
M203.017502,64.482307 
	C199.814697,60.733704 192.730408,59.372837 188.694595,62.260197 
	C181.307297,67.545319 177.498505,74.927864 178.109161,84.058014 
	C178.561768,90.825233 182.871597,94.721764 188.753708,95.037636 
	C196.410416,95.448792 201.016647,90.987419 203.867966,84.908562 
	C206.878204,78.490906 207.881439,71.596764 203.017502,64.482307 
z"/>
<path fill="#F5F5EF" opacity="1.000000" stroke="none" 
	d="
M106.244202,91.062439 
	C127.833496,84.582916 150.898697,92.580231 164.227829,110.240234 
	C173.000107,121.862823 182.344666,133.070984 191.772964,144.176086 
	C201.362793,155.471466 202.929550,168.316681 199.732162,182.061249 
	C198.146805,188.876129 190.304245,192.651367 182.407501,190.561722 
	C172.962982,188.062515 163.567062,185.298615 154.320129,182.149979 
	C131.877243,174.508057 109.715912,175.871231 87.522018,183.216858 
	C79.521416,185.864838 71.339798,187.998154 63.174042,190.107986 
	C47.702927,194.105331 42.059967,185.395660 41.051174,171.484467 
	C40.180923,159.483765 45.309227,149.584854 52.812260,140.708740 
	C62.113602,129.705200 71.269966,118.569214 80.872971,107.833954 
	C87.694214,100.208443 95.903137,94.285431 106.244202,91.062439 
M134.285019,94.913895 
	C129.347870,94.430946 124.410629,93.539955 119.473595,93.541176 
	C104.379051,93.544907 92.838615,100.987984 83.298729,111.943909 
	C73.243340,123.491829 63.306908,135.148911 53.554897,146.953613 
	C46.072472,156.011002 44.102898,166.603012 46.397816,177.971664 
	C47.787090,184.853897 52.303600,188.058258 59.134853,186.479858 
	C68.665771,184.277695 78.211105,181.912064 87.462166,178.768509 
	C111.696281,170.533630 135.650253,170.598633 159.745590,179.329102 
	C167.836060,182.260513 176.236572,184.429962 184.618530,186.431961 
	C190.733414,187.892456 194.421463,185.110718 195.954330,178.966537 
	C199.016922,166.690643 195.781464,155.964584 187.971558,146.350983 
	C179.681396,136.146225 171.363525,125.963722 163.122391,115.719498 
	C155.589600,106.355789 147.111359,98.320541 134.285019,94.913895 
z"/>
<path fill="#F6F5EF" opacity="1.000000" stroke="none" 
	d="
M105.137161,64.978180 
	C99.187592,81.800484 80.997223,82.205154 71.035713,69.289665 
	C61.638176,57.105400 58.597233,43.487034 63.287819,28.105097 
	C68.116684,12.269723 85.211067,9.080897 95.809296,20.455864 
	C107.611794,33.123363 110.983437,47.988453 105.137161,64.978180 
M101.808830,61.993916 
	C102.052467,61.025860 102.320122,60.063129 102.536095,59.088943 
	C105.270042,46.756977 102.479126,35.549805 94.889572,25.719398 
	C90.928932,20.589375 85.595177,16.680574 78.526772,18.156307 
	C71.435555,19.636797 68.470032,25.219433 66.828125,31.700321 
	C63.574589,44.542660 66.351830,56.206886 74.362770,66.470512 
	C83.411057,78.063179 95.735146,76.226639 101.808830,61.993916 
z"/>
<path fill="#F5F4EF" opacity="1.000000" stroke="none" 
	d="
M24.245430,115.742859 
	C14.530198,106.360901 12.482721,90.475983 16.345938,81.496902 
	C20.945345,70.806740 29.810883,67.942490 40.030750,73.568604 
	C52.293438,80.319298 59.774780,101.188416 53.397583,114.563141 
	C48.803715,124.197739 36.725216,126.060913 27.696690,119.151451 
	C26.516949,118.248604 25.559464,117.055351 24.245430,115.742859 
M25.470694,76.730934 
	C23.751465,78.721100 21.452641,80.448540 20.411211,82.745956 
	C15.328104,93.959427 22.432772,112.376892 33.620693,117.682899 
	C41.392181,121.368629 49.223183,117.617081 50.720062,109.051117 
	C52.688629,97.785942 49.628532,87.818253 41.207005,79.960655 
	C37.050770,76.082741 32.024506,73.869278 25.470694,76.730934 
z"/>
<path fill="#F6F5EF" opacity="1.000000" stroke="none" 
	d="
M157.661804,23.192444 
	C169.367081,35.318451 170.148331,57.580223 159.556747,69.712944 
	C152.992477,77.232353 141.216751,76.664566 135.308258,68.543762 
	C126.591476,56.563164 126.699112,38.487270 135.288605,26.390215 
	C140.046890,19.688850 150.377228,17.435923 157.661804,23.192444 
M139.681427,66.838783 
	C146.864426,72.718971 152.740936,71.898659 158.042862,64.275673 
	C164.216766,55.398983 164.125793,39.455261 157.848679,30.246527 
	C152.110931,21.829069 143.173996,21.994549 137.711639,30.619406 
	C131.035446,41.160873 131.636536,55.440186 139.681427,66.838783 
z"/>
<path fill="#F6F5EF" opacity="1.000000" stroke="none" 
	d="
M203.283508,64.767105 
	C207.881439,71.596764 206.878204,78.490906 203.867966,84.908562 
	C201.016647,90.987419 196.410416,95.448792 188.753708,95.037636 
	C182.871597,94.721764 178.561768,90.825233 178.109161,84.058014 
	C177.498505,74.927864 181.307297,67.545319 188.694595,62.260197 
	C192.730408,59.372837 199.814697,60.733704 203.283508,64.767105 
M182.377335,80.756104 
	C182.428574,81.740997 182.365906,82.747627 182.549042,83.707352 
	C184.026184,91.448433 189.151413,93.382088 195.443069,88.602539 
	C200.345245,84.878517 203.261780,76.655777 201.763596,70.782661 
	C200.295883,65.029045 195.283890,63.252472 190.217209,66.640434 
	C185.445282,69.831299 183.402283,74.555016 182.377335,80.756104 
z"/>
<path fill="#6096AC" opacity="1.000000" stroke="none" 
	d="
M134.692261,94.982857 
	C147.111359,98.320541 155.589600,106.355789 163.122391,115.719498 
	C171.363525,125.963722 179.681396,136.146225 187.971558,146.350983 
	C195.781464,155.964584 199.016922,166.690643 195.954330,178.966537 
	C194.421463,185.110718 190.733414,187.892456 184.618530,186.431961 
	C176.236572,184.429962 167.836060,182.260513 159.745590,179.329102 
	C135.650253,170.598633 111.696281,170.533630 87.462166,178.768509 
	C78.211105,181.912064 68.665771,184.277695 59.134853,186.479858 
	C52.303600,188.058258 47.787090,184.853897 46.397816,177.971664 
	C44.102898,166.603012 46.072472,156.011002 53.554897,146.953613 
	C63.306908,135.148911 73.243340,123.491829 83.298729,111.943909 
	C92.838615,100.987984 104.379051,93.544907 119.473595,93.541176 
	C124.410629,93.539955 129.347870,94.430946 134.692261,94.982857 
z"/>
<path fill="#6196AD" opacity="1.000000" stroke="none" 
	d="
M101.667419,62.363541 
	C95.735146,76.226639 83.411057,78.063179 74.362770,66.470512 
	C66.351830,56.206886 63.574589,44.542660 66.828125,31.700321 
	C68.470032,25.219433 71.435555,19.636797 78.526772,18.156307 
	C85.595177,16.680574 90.928932,20.589375 94.889572,25.719398 
	C102.479126,35.549805 105.270042,46.756977 102.536095,59.088943 
	C102.320122,60.063129 102.052467,61.025860 101.667419,62.363541 
z"/>
<path fill="#6196AD" opacity="1.000000" stroke="none" 
	d="
M25.793207,76.534119 
	C32.024506,73.869278 37.050770,76.082741 41.207005,79.960655 
	C49.628532,87.818253 52.688629,97.785942 50.720062,109.051117 
	C49.223183,117.617081 41.392181,121.368629 33.620693,117.682899 
	C22.432772,112.376892 15.328104,93.959427 20.411211,82.745956 
	C21.452641,80.448540 23.751465,78.721100 25.793207,76.534119 
z"/>
<path fill="#6297AD" opacity="1.000000" stroke="none" 
	d="
M139.446976,66.556229 
	C131.636536,55.440186 131.035446,41.160873 137.711639,30.619406 
	C143.173996,21.994549 152.110931,21.829069 157.848679,30.246527 
	C164.125793,39.455261 164.216766,55.398983 158.042862,64.275673 
	C152.740936,71.898659 146.864426,72.718971 139.446976,66.556229 
z"/>
<path fill="#6397AE" opacity="1.000000" stroke="none" 
	d="
M182.464203,80.368439 
	C183.402283,74.555016 185.445282,69.831299 190.217209,66.640434 
	C195.283890,63.252472 200.295883,65.029045 201.763596,70.782661 
	C203.261780,76.655777 200.345245,84.878517 195.443069,88.602539 
	C189.151413,93.382088 184.026184,91.448433 182.549042,83.707352 
	C182.365906,82.747627 182.428574,81.740997 182.464203,80.368439 
z"/>
</svg>