<svg version="1.1" id="Layer_1" xmlns="http://www.w3.org/2000/svg" xmlns:xlink="http://www.w3.org/1999/xlink" x="0px" y="0px"
     width="800px" height="250px" viewBox="0 0 795 251" enable-background="new 0 0 795 251" xml:space="preserve">
<path fill="#FEFFFF" opacity="1.000000" stroke="none" 
	d="
M567.000000,252.000000 
	C378.045013,252.000000 189.590042,252.000000 1.067531,252.000000 
	C1.067531,168.398376 1.067531,84.796700 1.067531,1.097505 
	C265.999969,1.097505 531.000000,1.097505 795.972473,1.097505 
	C795.972473,84.743332 795.972473,168.371674 795.972473,252.000000 
	C719.796631,252.000000 643.648315,252.000000 567.000000,252.000000 
M160.840302,109.363838 
	C159.985657,111.206596 158.469254,113.028145 158.409363,114.896378 
	C158.269836,119.249077 158.507217,123.680717 159.253662,127.965080 
	C159.596527,129.933044 161.140884,132.562302 162.788116,133.188904 
	C164.453934,133.822556 167.140320,132.740829 168.979630,131.702179 
	C171.202530,130.446930 172.973907,128.408569 174.996841,126.778831 
	C177.862915,124.469818 180.039276,120.885315 177.515381,118.276047 
	C173.673126,114.303833 168.523529,111.580902 163.838699,108.463310 
	C163.383270,108.160233 162.294189,108.809319 160.840302,109.363838 
M668.634277,71.978706 
	C666.199524,69.292656 663.582092,66.771568 659.659241,68.989189 
	C655.696716,71.229271 656.872253,74.604286 657.688721,78.169868 
	C658.289062,80.791916 657.857483,83.697762 657.615967,86.453491 
	C657.286133,90.216347 659.972656,93.632912 663.451599,93.561646 
	C666.391296,93.501434 676.553894,84.382957 676.732117,81.421585 
	C676.817810,79.996948 676.794617,78.021980 675.945435,77.194710 
	C674.002014,75.301399 671.520142,73.960770 668.634277,71.978706 
M126.793297,95.428696 
	C128.435150,94.082794 130.364716,92.963287 131.646667,91.334183 
	C133.281799,89.256271 135.544556,86.693993 135.404633,84.474937 
	C135.267014,82.292175 132.626511,80.115608 130.774017,78.243294 
	C129.429855,76.884735 127.708641,75.655090 125.923851,75.036507 
	C123.519920,74.203331 120.192932,72.868050 118.558426,73.867752 
	C116.913849,74.873611 116.451981,78.437263 116.209869,80.951195 
	C115.919128,83.970047 116.134377,87.110847 116.646759,90.110672 
	C117.056244,92.508057 117.610924,95.775429 119.259102,96.807571 
	C120.817383,97.783417 123.884514,96.349846 126.793297,95.428696 
M235.190643,112.415230 
	C233.681946,110.269630 232.425659,107.868332 230.588821,106.055153 
	C228.968582,104.455742 226.452286,102.267456 224.781921,102.600113 
	C222.764282,103.001930 220.666794,105.504280 219.600204,107.603676 
	C217.928864,110.893410 216.756058,114.540001 216.029495,118.167130 
	C215.596817,120.327110 215.629791,123.510139 216.904999,124.818901 
	C218.160751,126.107719 221.272980,125.954041 223.524734,125.792702 
	C225.400085,125.658318 227.161636,124.306534 229.055817,123.996811 
	C235.455826,122.950340 237.677734,119.353096 235.190643,112.415230 
M624.046570,97.508850 
	C624.893616,92.244843 622.699646,88.973579 617.923889,88.061111 
	C615.526917,87.603142 613.219727,86.438530 610.825378,86.274925 
	C608.722656,86.131248 605.861877,86.253143 604.611694,87.518341 
	C603.372253,88.772659 603.022644,91.787582 603.527649,93.701973 
	C604.599121,97.764328 606.197449,101.761230 608.149902,105.486130 
	C609.099182,107.296989 611.173157,109.274643 613.030029,109.623848 
	C614.633362,109.925369 617.177063,108.461426 618.369202,107.009552 
	C620.535034,104.371887 622.005859,101.163567 624.046570,97.508850 
M558.938293,65.660980 
	C556.723755,66.238655 553.795166,66.171204 552.512634,67.590874 
	C551.416260,68.804436 551.721680,71.857758 552.270813,73.860466 
	C553.295898,77.598984 554.669128,81.310326 556.452393,84.744896 
	C557.395203,86.560745 559.447144,88.878487 561.104370,88.966202 
	C563.068604,89.070168 565.481384,87.361084 567.084717,85.804337 
	C568.785217,84.153183 569.652222,81.677864 571.079956,79.704781 
	C574.717102,74.678368 572.434692,68.832832 566.339111,67.635178 
	C564.097046,67.194664 561.895264,66.549507 558.938293,65.660980 
M405.436646,218.048035 
	C406.256104,216.164749 407.245300,214.333740 407.846130,212.383118 
	C408.418396,210.525162 408.914246,208.531448 408.850708,206.617111 
	C408.763031,203.978043 409.002441,200.438065 407.478241,198.972443 
	C405.752319,197.312897 402.254822,197.284714 399.481323,197.003052 
	C397.752106,196.827438 395.827057,197.212738 394.186859,197.851791 
	C391.802856,198.780640 388.211334,199.742950 387.684967,201.468796 
	C387.101593,203.381592 389.030060,206.424789 390.515869,208.512329 
	C392.384155,211.137268 395.179779,213.097031 397.084320,215.702667 
	C399.151917,218.531326 401.441315,219.638214 405.436646,218.048035 
M768.023254,115.597130 
	C769.477539,112.305679 771.320496,109.120163 772.255981,105.687340 
	C772.933899,103.199837 773.384460,99.724945 772.149597,97.898453 
	C770.881653,96.023033 767.510010,95.378265 764.931030,94.645599 
	C763.092285,94.123230 760.959595,93.949448 759.105957,94.333687 
	C756.587524,94.855766 752.970581,95.438553 752.117676,97.142807 
	C751.246826,98.882851 752.841919,102.152557 753.919861,104.493668 
	C755.124878,107.110718 757.309509,109.286888 758.446228,111.922966 
	C760.354553,116.348221 762.440247,117.507759 768.023254,115.597130 
M464.391846,199.534149 
	C462.374847,196.154221 459.520935,194.804901 455.574219,195.608917 
	C453.193237,196.093948 450.574646,195.803879 448.371552,196.658234 
	C446.253723,197.479538 443.813965,198.970322 442.885895,200.845184 
	C442.242554,202.144897 443.455383,204.974976 444.658997,206.453705 
	C447.412689,209.836884 450.482544,213.031311 453.808990,215.847733 
	C455.239288,217.058746 457.787689,217.887894 459.528290,217.509918 
	C461.042328,217.181168 462.933441,215.070587 463.258759,213.464066 
	C464.132080,209.151184 464.255951,204.686554 464.391846,199.534149 
M259.794922,171.433411 
	C263.507843,167.755234 262.921997,164.197098 259.710999,160.492020 
	C258.337463,158.907166 257.690460,156.622711 256.175720,155.248947 
	C254.502823,153.731766 252.049454,151.796555 250.238770,152.067413 
	C248.406555,152.341476 246.414871,154.830872 245.437836,156.815094 
	C243.729416,160.284561 242.502731,164.049545 241.558167,167.812210 
	C241.088242,169.684219 240.987823,172.362656 242.005219,173.695175 
	C243.038025,175.047821 245.818588,176.034897 247.541840,175.696365 
	C251.531845,174.912460 255.345551,173.231171 259.794922,171.433411 
M520.347900,132.220123 
	C521.022095,132.942093 521.563416,133.936523 522.392517,134.340775 
	C526.948242,136.561996 531.437195,139.097092 536.244751,140.536972 
	C538.137634,141.103897 541.522766,139.755753 542.943298,138.145844 
	C545.347168,135.421494 541.287476,121.975296 538.038513,120.263382 
	C537.175171,119.808510 535.895935,119.120232 535.249878,119.438042 
	C530.193970,121.925323 525.170715,124.506882 520.349426,127.411545 
	C519.664795,127.824020 520.123840,130.134918 520.347900,132.220123 
M28.844049,89.160645 
	C32.750301,82.740677 31.017349,78.333794 23.978243,76.540916 
	C22.238262,76.097733 20.638258,74.972351 18.892576,74.717354 
	C16.647362,74.389381 13.339604,73.701859 12.269651,74.841087 
	C10.844359,76.358665 10.543667,79.554962 10.820477,81.905235 
	C11.254317,85.588760 12.223998,89.314621 13.653501,92.735580 
	C14.500551,94.762657 16.464544,97.313332 18.296633,97.657555 
	C20.098230,97.996048 22.598742,96.129280 24.363974,94.700623 
	C25.976559,93.395523 27.015480,91.381607 28.844049,89.160645 
M298.096436,167.751465 
	C297.498291,173.562561 296.536072,179.366501 296.421875,185.187088 
	C296.336670,189.529922 301.630096,191.451675 305.411346,188.874466 
	C307.569733,187.403381 309.774414,185.980408 312.059174,184.718491 
	C317.632355,181.640350 318.018921,175.531494 312.854889,171.797302 
	C311.139984,170.557251 309.354034,169.322983 307.943207,167.774002 
	C304.933441,164.469482 301.940826,163.823822 298.096436,167.751465 
M716.437988,121.895134 
	C720.824463,116.976006 720.494995,112.607849 715.547852,109.534042 
	C713.322510,108.151344 711.310425,106.243233 708.911438,105.377136 
	C706.818481,104.621544 703.702698,104.087639 702.173462,105.126320 
	C700.682007,106.139389 700.192505,109.240700 700.045593,111.476654 
	C699.824707,114.837723 699.959900,118.303429 700.566895,121.610268 
	C700.999939,123.969406 701.958923,127.436935 703.584595,128.060684 
	C705.523193,128.804504 708.568542,127.345352 710.863525,126.264969 
	C712.729126,125.386681 714.195129,123.659302 716.437988,121.895134 
M488.107758,162.050186 
	C492.163452,160.577698 493.449402,158.027222 491.693268,153.871048 
	C490.947021,152.104950 491.272003,149.872574 490.475433,148.144699 
	C489.355591,145.715500 488.118073,142.522247 486.052582,141.578888 
	C484.012482,140.647141 480.808685,141.861649 478.250366,142.601471 
	C476.411682,143.133179 474.512726,144.140533 473.148346,145.460510 
	C471.310333,147.238770 468.784912,149.511719 468.767487,151.590866 
	C468.753174,153.299637 471.742859,155.396362 473.803467,156.670364 
	C476.545593,158.365662 479.650543,159.496216 482.654480,160.736511 
	C484.145111,161.351990 485.758270,161.670715 488.107758,162.050186 
M334.559723,227.683472 
	C338.063110,231.974228 340.345886,232.146072 344.413147,228.783005 
	C346.027863,227.447861 347.973236,226.483734 349.842499,225.490784 
	C355.105865,222.694839 355.607819,216.498566 350.897491,212.883331 
	C348.709625,211.204102 346.882385,208.973022 344.531586,207.615906 
	C342.867126,206.655014 340.372162,206.031143 338.668213,206.574570 
	C337.197968,207.043518 335.536163,209.270981 335.325836,210.897736 
	C334.640472,216.198456 334.581085,221.580093 334.559723,227.683472 
M78.248268,104.154396 
	C75.081070,102.878426 72.001312,101.242096 68.717827,100.445282 
	C66.275146,99.852509 62.604603,99.339584 61.247345,100.637817 
	C59.857010,101.967682 60.191010,105.604530 60.542423,108.123917 
	C60.985508,111.300537 61.910709,114.499504 63.198135,117.439095 
	C64.150208,119.612984 65.752388,122.622017 67.542679,123.000771 
	C69.414131,123.396690 72.059769,121.356201 73.984520,119.881554 
	C75.465630,118.746803 76.218132,116.711906 77.533546,115.299835 
	C80.592926,112.015640 81.821655,108.630180 78.248268,104.154396 
M521.230164,119.032715 
	C523.294434,120.825790 525.685913,120.780754 526.579407,118.348373 
	C527.399170,116.116684 527.190613,113.302574 526.681763,110.904961 
	C526.516479,110.126152 522.921997,109.131844 522.693176,109.466141 
	C521.412964,111.336594 520.516724,113.533661 519.856079,115.729515 
	C519.626038,116.494240 520.442810,117.573921 521.230164,119.032715 
M21.500418,71.287384 
	C24.201384,73.826965 26.961781,72.829445 28.859779,70.614433 
	C30.035318,69.242546 30.249126,66.798271 30.250000,64.835098 
	C30.250231,64.315964 27.261852,62.986698 26.678524,63.419949 
	C24.473099,65.057945 22.667229,67.244865 20.794077,69.301285 
	C20.618460,69.494080 21.021215,70.213715 21.500418,71.287384 
M721.345947,96.996941 
	C717.775452,95.573875 714.982910,97.017921 713.425842,100.026222 
	C712.838074,101.161743 714.177490,104.719627 714.588745,104.711327 
	C716.890869,104.664955 719.466370,104.348000 721.393494,103.195457 
	C723.573975,101.891357 724.187317,99.528519 721.345947,96.996941 
M552.404602,122.131401 
	C550.382019,123.344666 547.829346,124.168541 546.541443,125.921623 
	C545.803894,126.925659 547.121948,129.439896 547.514587,131.274231 
	C549.924561,130.261108 552.849670,129.783112 554.606628,128.091675 
	C556.553467,126.217491 556.464661,123.491425 552.404602,122.131401 
M771.746216,87.177879 
	C771.880371,89.104431 772.014526,91.030991 772.148682,92.957535 
	C774.096069,92.632042 776.910095,92.971184 777.788513,91.825851 
	C779.117676,90.092865 780.334839,86.393089 779.416748,85.177147 
	C776.865723,81.798424 774.306580,84.464790 771.746216,87.177879 
M138.941895,81.616791 
	C142.269928,83.447350 145.221680,82.496040 147.285034,79.754517 
	C148.028748,78.766357 147.304459,76.673317 147.250076,75.084480 
	C144.770782,75.178726 142.074722,74.697662 139.872559,75.527412 
	C137.626282,76.373779 136.363647,78.630196 138.941895,81.616791 
M456.192352,184.381348 
	C454.390656,183.905869 451.438873,182.544815 450.998108,183.117279 
	C449.546692,185.002213 448.656128,187.536743 448.308044,189.931931 
	C448.190979,190.737061 450.935303,192.914215 451.353638,192.676025 
	C453.193542,191.628494 454.844788,190.072937 456.178101,188.394638 
	C456.755829,187.667404 456.400208,186.198715 456.192352,184.381348 
M463.513763,183.119415 
	C462.340973,184.650314 460.423553,186.084976 460.209656,187.739822 
	C460.004974,189.323318 461.183563,191.666794 462.512726,192.636368 
	C463.240509,193.167221 466.155121,191.974762 466.974579,190.791412 
	C468.065491,189.216034 468.587921,186.820984 468.322021,184.922684 
	C468.200073,184.052170 465.617432,183.526321 463.513763,183.119415 
M679.395020,85.366096 
	C680.785889,89.178940 683.845337,90.054550 687.299377,89.262787 
	C688.532166,88.980217 690.499329,86.775787 690.267883,86.207115 
	C689.611511,84.594604 688.243958,82.792587 686.698547,82.124603 
	C683.822998,80.881691 680.831055,80.963829 679.395020,85.366096 
M237.893723,129.682541 
	C242.288544,132.608734 246.268005,132.576462 246.397675,129.544525 
	C246.473007,127.783447 245.156281,125.342720 243.689835,124.311134 
	C242.238739,123.290367 239.811996,123.656563 237.813217,123.414375 
	C237.690338,125.307663 237.567444,127.200951 237.893723,129.682541 
M580.628113,59.568630 
	C576.765686,58.366116 573.925049,59.969265 572.782837,63.465096 
	C572.371521,64.724060 574.307434,68.154549 575.035522,68.114441 
	C577.113281,68.000015 579.668396,67.083046 580.974060,65.567322 
	C581.929565,64.458084 581.206970,61.903267 580.628113,59.568630 
M31.478264,73.978951 
	C32.558662,75.509819 34.083736,78.490654 34.642124,78.319405 
	C37.001732,77.595757 39.309906,76.181870 41.110153,74.467308 
	C41.668316,73.935722 40.661812,70.425003 40.199581,70.387291 
	C38.084476,70.214714 35.862549,70.621544 33.777130,71.184074 
	C32.973988,71.400734 32.431381,72.583244 31.478264,73.978951 
M271.247925,175.186539 
	C270.513489,174.533295 269.844452,173.434952 269.031555,173.315430 
	C267.078156,173.028198 265.057220,173.200089 263.063507,173.186722 
	C263.166321,174.984390 262.578339,177.633270 263.519928,178.397430 
	C265.320007,179.858307 267.990753,180.246384 270.300140,181.079712 
	C270.745728,179.314346 271.191284,177.548996 271.247925,175.186539 
M774.679688,109.308601 
	C775.436340,110.956978 776.063232,113.908379 776.974976,113.999161 
	C779.318115,114.232468 781.892273,113.446983 784.137939,112.505600 
	C784.753479,112.247574 784.985962,108.996773 784.627136,108.836464 
	C782.546997,107.907158 780.262390,107.262604 777.993225,107.016098 
	C777.110535,106.920212 776.087769,108.113815 774.679688,109.308601 
M399.439789,191.778519 
	C401.742706,187.033966 401.164703,183.256363 398.024292,183.421463 
	C396.305206,183.511826 393.865753,185.123489 393.234467,186.658997 
	C392.515778,188.407120 393.450317,190.834915 393.666290,192.967300 
	C395.417633,192.759766 397.168945,192.552216 399.439789,191.778519 
M407.709412,184.396561 
	C406.646484,185.818253 404.830872,187.184250 404.720490,188.676392 
	C404.596191,190.356903 405.608948,192.656433 406.915588,193.689133 
	C407.600250,194.230240 410.670105,193.078720 411.418182,191.901047 
	C412.517090,190.171097 412.868439,187.709213 412.730591,185.612259 
	C412.690826,185.007812 409.876038,184.585831 407.709412,184.396561 
M759.284851,85.955116 
	C758.976318,89.375122 760.174438,92.034706 763.865723,90.446754 
	C765.859985,89.588844 767.218811,86.743240 768.273987,84.514862 
	C768.603210,83.819450 766.695618,81.100777 766.333618,81.200562 
	C764.176514,81.795158 762.152283,82.905556 760.135071,83.943108 
	C759.781494,84.124977 759.672485,84.782265 759.284851,85.955116 
M779.288147,95.651932 
	C777.630798,97.185730 774.870789,99.107681 777.585754,101.064262 
	C779.348755,102.334747 782.747192,102.022842 785.151245,101.403809 
	C786.225952,101.127075 786.658203,98.355072 787.382019,96.715477 
	C785.197144,96.116592 783.017090,95.498558 780.820923,94.944565 
	C780.564636,94.879921 780.219055,95.168983 779.288147,95.651932 
M680.433289,65.110695 
	C680.617371,61.966343 678.519348,60.533951 676.081604,61.235302 
	C673.782532,61.896797 671.736267,63.814495 669.946716,65.557404 
	C669.579651,65.914871 670.818237,69.009483 671.360474,69.022499 
	C673.652527,69.077568 676.006348,68.605865 678.239258,67.977463 
	C679.026184,67.756004 679.532104,66.536102 680.433289,65.110695 
M268.399414,157.923859 
	C271.049377,156.513626 273.201202,154.348892 270.218811,151.966187 
	C268.609985,150.680862 265.382874,150.936340 263.014618,151.310852 
	C261.981201,151.474274 261.270844,153.680130 260.413788,154.958450 
	C262.372528,156.137909 264.309479,157.357040 266.312012,158.456741 
	C266.635834,158.634567 267.251099,158.281647 268.399414,157.923859 
M689.146057,71.299850 
	C686.434082,68.477448 683.425110,68.881607 680.813171,71.109154 
	C679.696228,72.061722 678.593323,74.981171 679.063599,75.462082 
	C680.258301,76.683685 682.438293,77.773857 684.053955,77.570099 
	C686.986206,77.200294 689.918945,75.967438 689.146057,71.299850 
M147.157593,93.695267 
	C149.888885,91.960281 150.539703,89.545540 147.652313,87.899025 
	C145.624741,86.742821 142.763321,86.731758 140.304230,86.847267 
	C139.588837,86.880859 138.215317,90.005707 138.436813,90.194275 
	C140.316528,91.794441 142.458389,93.107796 144.616058,94.342125 
	C145.039536,94.584381 145.870926,94.113586 147.157593,93.695267 
M715.006836,127.436874 
	C714.054810,131.558334 715.806152,134.517273 719.839966,134.405319 
	C721.554932,134.357712 724.655762,132.287933 724.638611,131.175522 
	C724.578674,127.285622 721.318420,126.279800 717.927856,126.176208 
	C717.165344,126.152908 716.385132,126.707932 715.006836,127.436874 
M311.530975,166.037643 
	C313.974762,168.977722 316.952698,168.549713 319.431335,166.568192 
	C320.665192,165.581772 321.394958,163.258484 321.289703,161.607727 
	C321.238739,160.808456 318.665222,159.458557 317.359161,159.591354 
	C314.133240,159.919327 311.045105,161.026703 311.530975,166.037643 
M493.155182,132.809921 
	C489.495026,136.705795 489.061859,140.533127 492.295807,141.096283 
	C494.019226,141.396378 496.648926,140.353210 497.796936,139.003815 
	C498.930634,137.671204 498.712708,135.188660 499.087738,133.210571 
	C497.306396,132.949402 495.525055,132.688232 493.155182,132.809921 
M576.816406,76.744232 
	C579.663696,79.552536 582.751221,79.483719 585.783020,77.221794 
	C587.976440,75.585358 588.023315,73.623398 585.776672,71.886024 
	C582.133484,69.068604 577.182617,71.329720 576.816406,76.744232 
M494.565308,150.907990 
	C498.148315,153.342728 501.879333,152.789536 503.361328,149.052856 
	C503.927612,147.625076 503.078674,144.186844 502.124420,143.860840 
	C498.378052,142.580933 495.966156,144.967880 494.465881,148.260406 
	C494.212891,148.815582 494.373901,149.559433 494.565308,150.907990 
M78.018578,120.142166 
	C78.550461,124.302086 81.504738,126.791000 85.180084,125.488853 
	C86.688591,124.954399 88.540794,122.692085 88.549332,121.206039 
	C88.565170,118.453171 84.045952,116.980446 80.407104,118.234833 
	C79.669991,118.488937 79.068321,119.135948 78.018578,120.142166 
M550.874634,113.624420 
	C549.493713,112.591484 547.224731,110.435661 546.877808,110.710045 
	C544.814148,112.342247 542.991394,114.407837 541.581299,116.639694 
	C541.261597,117.145775 543.091064,119.959900 543.590271,119.867577 
	C545.672668,119.482430 547.753784,118.599838 549.564758,117.466942 
	C550.342041,116.980675 550.458740,115.438591 550.874634,113.624420 
M531.694092,108.337181 
	C530.914856,113.552200 532.817322,117.061600 535.702393,115.624435 
	C537.425110,114.766281 538.962402,112.297066 539.310730,110.327049 
	C539.570190,108.859993 538.157288,106.276245 536.795837,105.612816 
	C535.774292,105.115013 533.650208,106.879753 531.694092,108.337181 
M173.502731,102.992371 
	C172.842499,104.672768 171.720779,106.361099 171.749466,108.029648 
	C171.760941,108.695892 174.577362,110.136887 175.650024,109.788322 
	C177.797272,109.090569 179.804535,107.593819 181.472092,106.008736 
	C181.983398,105.522720 181.321991,102.654373 180.989456,102.614540 
	C178.734726,102.344452 176.424240,102.539833 173.502731,102.992371 
M319.974396,171.175842 
	C319.839447,172.635788 319.704468,174.095734 319.569550,175.555679 
	C322.317719,175.721725 325.125671,176.260529 327.778870,175.834824 
	C328.613892,175.700821 329.033691,172.979141 329.643555,171.441818 
	C327.321106,170.814697 325.019684,170.074997 322.662262,169.635422 
	C322.031036,169.517731 321.229065,170.315948 319.974396,171.175842 
M72.145241,97.585701 
	C76.092239,98.632942 78.609215,96.720581 79.975243,93.332176 
	C81.107994,90.522408 79.639595,88.809883 76.721519,88.706024 
	C72.355453,88.550629 69.759232,92.896645 72.145241,97.585701 
M357.692749,222.456772 
	C357.545868,224.332306 356.664856,227.410995 357.391754,227.854492 
	C359.452118,229.111649 362.150421,229.520462 364.642914,229.734573 
	C365.271027,229.788513 366.877289,227.225845 366.658508,226.947693 
	C365.227386,225.128479 363.549896,223.421738 361.666382,222.080658 
	C360.936127,221.560699 359.460510,222.087524 357.692749,222.456772 
M349.845520,207.657043 
	C350.895630,208.049957 352.283539,209.072678 352.935425,208.723053 
	C355.322113,207.443024 357.463837,205.706207 359.697815,204.141418 
	C358.561829,202.947571 357.042358,200.555038 356.358368,200.773880 
	C353.822327,201.585281 351.513733,203.185196 349.252106,204.688080 
	C348.933167,204.899994 349.348297,206.216553 349.845520,207.657043 
M276.270508,166.873764 
	C277.356415,163.423721 274.885254,162.037598 272.458588,161.815430 
	C270.433472,161.630035 268.142120,162.713852 266.258240,163.757996 
	C265.778076,164.024124 266.045715,167.253845 266.571503,167.442200 
	C268.884247,168.270706 271.406158,168.599030 273.878418,168.839096 
	C274.490021,168.898483 275.199677,167.947922 276.270508,166.873764 
M325.529144,181.590668 
	C320.229736,180.624161 317.331207,181.953674 318.494934,184.925735 
	C319.173553,186.658920 321.528137,188.390259 323.415253,188.798874 
	C325.070892,189.157349 327.126038,187.670609 329.004730,186.998917 
	C328.075226,185.302094 327.145721,183.605270 325.529144,181.590668 
M476.631592,192.769363 
	C475.355682,192.587616 473.672241,191.805878 472.883606,192.341537 
	C470.867950,193.710587 469.163177,195.596329 467.630310,197.512390 
	C467.498444,197.677231 469.889801,200.703278 470.548615,200.508118 
	C473.025055,199.774567 475.402649,198.439346 477.504791,196.902161 
	C478.018036,196.526855 477.342438,194.525803 476.631592,192.769363 
M480.891663,128.336884 
	C480.596954,130.079163 479.582489,132.157837 480.197998,133.474731 
	C480.895996,134.968170 482.984406,136.461456 484.603394,136.625992 
	C485.543060,136.721512 487.496124,134.284561 487.648193,132.845139 
	C487.847168,130.961746 487.093567,128.664474 485.967041,127.113884 
	C485.537445,126.522552 482.941864,127.504875 480.891663,128.336884 
M570.246216,59.842808 
	C570.069702,58.095604 569.893188,56.348400 569.716675,54.601192 
	C567.359192,55.200356 564.568420,55.241222 562.806702,56.608219 
	C561.751221,57.427227 562.304443,60.319538 562.134644,62.279972 
	C564.245850,62.134243 566.369019,62.073853 568.459900,61.782314 
	C568.977661,61.710125 569.390869,60.888256 570.246216,59.842808 
M618.658508,83.392006 
	C619.346863,82.941864 620.455688,82.624107 620.646729,82.017349 
	C621.282715,79.997276 621.842834,77.867287 621.792480,75.794952 
	C621.783203,75.413841 618.063110,74.275063 617.313110,74.928665 
	C615.514587,76.496048 614.463623,78.921257 613.110962,81.000259 
	C614.723022,81.895020 616.335144,82.789780 618.658508,83.392006 
M310.892914,195.545731 
	C311.429108,195.930130 311.984650,196.666306 312.498169,196.638107 
	C314.729523,196.515533 316.948608,196.170212 319.172150,195.905838 
	C318.820953,194.287247 318.965759,191.749146 318.017456,191.237671 
	C315.913269,190.102753 313.260895,189.984238 310.832031,189.451309 
	C310.680847,191.304901 310.529663,193.158493 310.892914,195.545731 
M412.764252,212.687866 
	C413.977356,213.076172 415.488617,214.117004 416.345398,213.725510 
	C418.559143,212.714035 420.571075,211.167374 422.393341,209.533112 
	C422.581879,209.364014 420.811676,206.036362 420.195160,206.114151 
	C417.639038,206.436752 415.074554,207.296783 412.751221,208.442291 
	C412.159576,208.734009 412.442719,210.800049 412.764252,212.687866 
M365.264984,217.093887 
	C368.136841,214.938232 369.085999,212.216141 365.275360,210.722000 
	C363.294281,209.945221 360.307037,211.164993 358.013000,212.080841 
	C357.262573,212.380432 356.745239,215.593491 357.006683,215.725906 
	C358.933044,216.701492 361.071594,217.277298 363.174347,217.868713 
	C363.573425,217.980957 364.110382,217.602875 365.264984,217.093887 
M255.353378,186.319443 
	C257.159882,185.767502 258.966400,185.215576 260.772919,184.663651 
	C259.773804,182.561096 259.207245,179.985001 257.615631,178.531036 
	C256.638611,177.638519 254.092331,178.463837 252.250717,178.517761 
	C252.527023,180.616440 252.717072,182.732925 253.143646,184.800598 
	C253.243408,185.284073 254.145020,185.602127 255.353378,186.319443 
M577.347473,82.115761 
	C575.354370,83.422409 573.361206,84.729065 571.368103,86.035736 
	C573.049011,87.348404 574.644348,89.556923 576.434387,89.727928 
	C578.316833,89.907761 580.385559,88.138077 582.372864,87.220268 
	C580.955872,85.547920 579.538818,83.875565 577.347473,82.115761 
M475.179749,139.814880 
	C475.429199,137.505310 476.276672,135.021698 475.676575,132.959351 
	C475.375214,131.923737 472.440430,131.654449 470.696564,131.038589 
	C470.080566,133.389130 468.728119,135.840591 469.032959,138.064941 
	C469.423431,140.914185 471.777832,141.972427 475.179749,139.814880 
M140.639282,98.931786 
	C138.353806,97.687057 136.156693,95.682457 133.758911,95.403664 
	C131.175812,95.103325 129.234344,97.622658 130.823303,100.036163 
	C131.972031,101.781006 134.675278,103.101112 136.829239,103.346443 
	C138.000565,103.479858 139.472443,100.974487 140.639282,98.931786 
M35.195499,83.587799 
	C35.756683,85.317604 36.072853,88.365387 36.926128,88.524017 
	C39.256680,88.957275 41.872936,88.383263 44.238792,87.719238 
	C44.819702,87.556206 45.387577,84.666847 45.090599,84.489548 
	C43.120281,83.313263 40.970695,82.308907 38.753361,81.739944 
	C37.905273,81.522339 36.725834,82.596054 35.195499,83.587799 
M234.830612,104.095909 
	C234.496048,109.193245 238.255051,109.303490 241.342209,108.558395 
	C243.038864,108.148911 245.651627,105.044044 245.314194,103.908195 
	C244.279358,100.424843 240.928787,100.549919 237.932053,101.469048 
	C236.914734,101.781052 236.111526,102.791100 234.830612,104.095909 
M233.837814,130.584152 
	C229.787827,127.352180 225.755905,127.465195 225.756226,130.849350 
	C225.756393,132.744003 227.369125,135.172821 228.989105,136.357178 
	C230.197403,137.240570 232.581772,136.515320 234.442413,136.506454 
	C234.390518,134.722473 234.338623,132.938507 233.837814,130.584152 
M185.041504,129.739349 
	C188.221527,129.964508 192.122482,130.544983 191.449234,125.729034 
	C191.231964,124.174782 187.995407,122.442284 185.878296,121.973572 
	C184.556641,121.680969 182.745422,123.599663 181.153885,124.526031 
	C182.203720,126.165398 183.253571,127.804771 185.041504,129.739349 
M249.073318,113.246605 
	C247.170517,112.910011 245.069992,111.925697 243.423386,112.428345 
	C241.930542,112.884071 240.932358,114.960197 239.716080,116.321899 
	C241.020370,117.483414 242.200668,119.377045 243.659836,119.624207 
	C245.555130,119.945259 247.940201,119.377525 249.570953,118.338943 
	C250.291779,117.879868 249.677292,115.324066 249.073318,113.246605 
M673.991760,97.743958 
	C678.965515,99.542297 682.315613,98.714645 681.804932,95.698219 
	C681.516968,93.996925 679.642822,91.852890 678.006836,91.288063 
	C676.319397,90.705475 674.053955,91.796936 672.041443,92.155983 
	C672.486633,93.875252 672.931824,95.594521 673.991760,97.743958 
M37.055943,93.242348 
	C35.953819,92.920090 34.676292,92.080879 33.786015,92.382957 
	C31.921064,93.015755 30.260015,94.249489 28.515234,95.236450 
	C29.403374,96.633446 30.117146,99.029816 31.215591,99.221474 
	C33.575024,99.633141 36.132748,98.908318 38.609291,98.648750 
	C38.297832,96.979996 37.986374,95.311234 37.055943,93.242348 
M138.044083,71.816910 
	C139.883774,67.664978 138.718201,65.119141 134.936996,65.828743 
	C132.810974,66.227722 130.830551,68.086166 129.139908,69.667130 
	C128.686478,70.091133 129.369125,72.847099 129.816589,72.926903 
	C131.917282,73.301559 134.119095,73.159492 136.281540,73.094002 
	C136.699677,73.081337 137.103226,72.586761 138.044083,71.816910 
M421.015228,199.608948 
	C422.961609,197.398193 423.677216,194.673157 420.441101,193.734863 
	C418.419159,193.148636 415.495453,194.412613 413.476562,195.657425 
	C412.591797,196.202972 412.955719,198.773575 412.752625,200.424637 
	C414.891296,200.561676 417.028870,200.743668 419.169617,200.796600 
	C419.582123,200.806778 420.007141,200.311081 421.015228,199.608948 
M91.833794,107.341431 
	C89.900620,107.481796 87.768227,107.176651 86.104912,107.920471 
	C85.011459,108.409454 83.675636,111.118217 84.048363,111.603157 
	C85.140892,113.024612 87.045265,114.685051 88.610535,114.664238 
	C90.618683,114.637550 92.606293,113.065414 94.602760,112.159119 
	C93.916328,110.658989 93.229897,109.158867 91.833794,107.341431 
M186.618988,109.717537 
	C184.994461,110.440201 182.822800,110.757866 181.902191,112.001556 
	C181.014847,113.200310 181.419601,115.355484 181.256683,117.090462 
	C183.304672,117.243057 185.510422,117.925087 187.349594,117.376984 
	C188.763916,116.955482 190.689011,114.929710 190.619186,113.719330 
	C190.539032,112.329819 188.509384,111.052780 186.618988,109.717537 
M181.073746,132.205887 
	C177.900803,130.849899 174.440857,129.553177 172.984222,133.999863 
	C172.641663,135.045593 174.989258,137.873993 176.596283,138.420288 
	C178.450394,139.050598 180.854874,138.061951 183.020355,137.776337 
	C182.578491,136.064606 182.136627,134.352859 181.073746,132.205887 
M471.619781,212.846497 
	C476.807251,211.709641 479.690491,208.215820 477.203064,206.030945 
	C475.985992,204.961868 473.330536,204.532425 471.791595,205.092545 
	C470.057922,205.723541 468.547516,207.632034 467.619019,209.351532 
	C467.382263,209.790039 469.712982,211.614944 471.619781,212.846497 
M88.260086,95.102089 
	C86.121147,96.048767 83.543411,96.565369 82.022156,98.117462 
	C81.221008,98.934837 82.265160,101.560883 82.476105,103.370255 
	C84.850990,102.756607 87.661194,102.730423 89.487808,101.376877 
	C91.649185,99.775253 91.925903,97.125168 88.260086,95.102089 
M357.207855,234.051041 
	C354.951080,232.689789 352.799225,231.029602 350.364624,230.174896 
	C349.746460,229.957870 348.228790,232.303131 347.124451,233.471069 
	C348.992065,235.097305 350.621277,237.358810 352.793274,238.173767 
	C355.031677,239.013641 357.478210,238.029678 357.207855,234.051041 
M626.870300,102.983055 
	C625.640564,104.279877 624.410767,105.576698 623.181030,106.873528 
	C624.578613,108.076187 625.915833,110.164940 627.388428,110.265106 
	C629.387878,110.401115 631.613464,109.214371 633.432312,108.092735 
	C633.746460,107.898987 632.913757,104.823280 631.890076,103.799042 
	C631.038818,102.947327 629.128784,103.153816 626.870300,102.983055 
M632.294373,86.700523 
	C632.485229,84.628738 632.676086,82.556953 632.867004,80.485176 
	C630.828613,80.662354 628.104858,80.104729 626.926453,81.203888 
	C625.473816,82.558723 625.307922,85.292992 624.585999,87.431152 
	C626.962708,87.358856 629.339417,87.286560 632.294373,86.700523 
M631.759155,99.049591 
	C632.586060,99.053581 633.626770,99.380074 634.199280,99.000420 
	C635.843628,97.910042 637.298584,96.533951 638.827942,95.270164 
	C637.537354,93.992981 636.251587,91.677711 634.955078,91.671654 
	C632.781433,91.661491 630.601013,93.122780 628.423401,93.964867 
	C629.268311,95.614670 630.113159,97.264473 631.759155,99.049591 
M724.039307,123.706757 
	C725.769958,124.140160 727.670959,125.220306 729.182739,124.822319 
	C730.650452,124.435913 732.571228,122.614082 732.699707,121.270279 
	C732.807312,120.144547 730.793823,118.068329 729.400635,117.731316 
	C727.553894,117.284584 725.186462,117.719215 723.481201,118.612251 
	C722.839600,118.948227 723.424072,121.625488 724.039307,123.706757 
M731.301270,110.691704 
	C730.971741,108.987221 730.642212,107.282745 730.312683,105.578262 
	C727.865662,106.052925 725.266663,106.187935 723.050598,107.178940 
	C722.229492,107.546120 722.307190,109.923424 721.975037,111.384010 
	C724.071960,111.857224 726.151917,112.509224 728.274597,112.710258 
	C729.056763,112.784332 729.939697,111.794617 731.301270,110.691704 
z"/>
<path fill="#6899AF" opacity="1.000000" stroke="none" 
	d="
M161.169769,109.190132 
	C162.294189,108.809319 163.383270,108.160233 163.838699,108.463310 
	C168.523529,111.580902 173.673126,114.303833 177.515381,118.276047 
	C180.039276,120.885315 177.862915,124.469818 174.996841,126.778831 
	C172.973907,128.408569 171.202530,130.446930 168.979630,131.702179 
	C167.140320,132.740829 164.453934,133.822556 162.788116,133.188904 
	C161.140884,132.562302 159.596527,129.933044 159.253662,127.965080 
	C158.507217,123.680717 158.269836,119.249077 158.409363,114.896378 
	C158.469254,113.028145 159.985657,111.206596 161.169769,109.190132 
z"/>
<path fill="#6899AF" opacity="1.000000" stroke="none" 
	d="
M668.945618,72.187195 
	C671.520142,73.960770 674.002014,75.301399 675.945435,77.194710 
	C676.794617,78.021980 676.817810,79.996948 676.732117,81.421585 
	C676.553894,84.382957 666.391296,93.501434 663.451599,93.561646 
	C659.972656,93.632912 657.286133,90.216347 657.615967,86.453491 
	C657.857483,83.697762 658.289062,80.791916 657.688721,78.169868 
	C656.872253,74.604286 655.696716,71.229271 659.659241,68.989189 
	C663.582092,66.771568 666.199524,69.292656 668.945618,72.187195 
z"/>
<path fill="#6899AE" opacity="1.000000" stroke="none" 
	d="
M126.540649,95.702362 
	C123.884514,96.349846 120.817383,97.783417 119.259102,96.807571 
	C117.610924,95.775429 117.056244,92.508057 116.646759,90.110672 
	C116.134377,87.110847 115.919128,83.970047 116.209869,80.951195 
	C116.451981,78.437263 116.913849,74.873611 118.558426,73.867752 
	C120.192932,72.868050 123.519920,74.203331 125.923851,75.036507 
	C127.708641,75.655090 129.429855,76.884735 130.774017,78.243294 
	C132.626511,80.115608 135.267014,82.292175 135.404633,84.474937 
	C135.544556,86.693993 133.281799,89.256271 131.646667,91.334183 
	C130.364716,92.963287 128.435150,94.082794 126.540649,95.702362 
z"/>
<path fill="#6899AF" opacity="1.000000" stroke="none" 
	d="
M235.387695,112.727333 
	C237.677734,119.353096 235.455826,122.950340 229.055817,123.996811 
	C227.161636,124.306534 225.400085,125.658318 223.524734,125.792702 
	C221.272980,125.954041 218.160751,126.107719 216.904999,124.818901 
	C215.629791,123.510139 215.596817,120.327110 216.029495,118.167130 
	C216.756058,114.540001 217.928864,110.893410 219.600204,107.603676 
	C220.666794,105.504280 222.764282,103.001930 224.781921,102.600113 
	C226.452286,102.267456 228.968582,104.455742 230.588821,106.055153 
	C232.425659,107.868332 233.681946,110.269630 235.387695,112.727333 
z"/>
<path fill="#6899AE" opacity="1.000000" stroke="none" 
	d="
M623.906616,97.851120 
	C622.005859,101.163567 620.535034,104.371887 618.369202,107.009552 
	C617.177063,108.461426 614.633362,109.925369 613.030029,109.623848 
	C611.173157,109.274643 609.099182,107.296989 608.149902,105.486130 
	C606.197449,101.761230 604.599121,97.764328 603.527649,93.701973 
	C603.022644,91.787582 603.372253,88.772659 604.611694,87.518341 
	C605.861877,86.253143 608.722656,86.131248 610.825378,86.274925 
	C613.219727,86.438530 615.526917,87.603142 617.923889,88.061111 
	C622.699646,88.973579 624.893616,92.244843 623.906616,97.851120 
z"/>
<path fill="#6899AE" opacity="1.000000" stroke="none" 
	d="
M559.306702,65.829346 
	C561.895264,66.549507 564.097046,67.194664 566.339111,67.635178 
	C572.434692,68.832832 574.717102,74.678368 571.079956,79.704781 
	C569.652222,81.677864 568.785217,84.153183 567.084717,85.804337 
	C565.481384,87.361084 563.068604,89.070168 561.104370,88.966202 
	C559.447144,88.878487 557.395203,86.560745 556.452393,84.744896 
	C554.669128,81.310326 553.295898,77.598984 552.270813,73.860466 
	C551.721680,71.857758 551.416260,68.804436 552.512634,67.590874 
	C553.795166,66.171204 556.723755,66.238655 559.306702,65.829346 
z"/>
<path fill="#6899AE" opacity="1.000000" stroke="none" 
	d="
M405.096405,218.248169 
	C401.441315,219.638214 399.151917,218.531326 397.084320,215.702667 
	C395.179779,213.097031 392.384155,211.137268 390.515869,208.512329 
	C389.030060,206.424789 387.101593,203.381592 387.684967,201.468796 
	C388.211334,199.742950 391.802856,198.780640 394.186859,197.851791 
	C395.827057,197.212738 397.752106,196.827438 399.481323,197.003052 
	C402.254822,197.284714 405.752319,197.312897 407.478241,198.972443 
	C409.002441,200.438065 408.763031,203.978043 408.850708,206.617111 
	C408.914246,208.531448 408.418396,210.525162 407.846130,212.383118 
	C407.245300,214.333740 406.256104,216.164749 405.096405,218.248169 
z"/>
<path fill="#6899AF" opacity="1.000000" stroke="none" 
	d="
M767.707581,115.813171 
	C762.440247,117.507759 760.354553,116.348221 758.446228,111.922966 
	C757.309509,109.286888 755.124878,107.110718 753.919861,104.493668 
	C752.841919,102.152557 751.246826,98.882851 752.117676,97.142807 
	C752.970581,95.438553 756.587524,94.855766 759.105957,94.333687 
	C760.959595,93.949448 763.092285,94.123230 764.931030,94.645599 
	C767.510010,95.378265 770.881653,96.023033 772.149597,97.898453 
	C773.384460,99.724945 772.933899,103.199837 772.255981,105.687340 
	C771.320496,109.120163 769.477539,112.305679 767.707581,115.813171 
z"/>
<path fill="#6899AE" opacity="1.000000" stroke="none" 
	d="
M464.534668,199.908173 
	C464.255951,204.686554 464.132080,209.151184 463.258759,213.464066 
	C462.933441,215.070587 461.042328,217.181168 459.528290,217.509918 
	C457.787689,217.887894 455.239288,217.058746 453.808990,215.847733 
	C450.482544,213.031311 447.412689,209.836884 444.658997,206.453705 
	C443.455383,204.974976 442.242554,202.144897 442.885895,200.845184 
	C443.813965,198.970322 446.253723,197.479538 448.371552,196.658234 
	C450.574646,195.803879 453.193237,196.093948 455.574219,195.608917 
	C459.520935,194.804901 462.374847,196.154221 464.534668,199.908173 
z"/>
<path fill="#6899AF" opacity="1.000000" stroke="none" 
	d="
M259.512817,171.673584 
	C255.345551,173.231171 251.531845,174.912460 247.541840,175.696365 
	C245.818588,176.034897 243.038025,175.047821 242.005219,173.695175 
	C240.987823,172.362656 241.088242,169.684219 241.558167,167.812210 
	C242.502731,164.049545 243.729416,160.284561 245.437836,156.815094 
	C246.414871,154.830872 248.406555,152.341476 250.238770,152.067413 
	C252.049454,151.796555 254.502823,153.731766 256.175720,155.248947 
	C257.690460,156.622711 258.337463,158.907166 259.710999,160.492020 
	C262.921997,164.197098 263.507843,167.755234 259.512817,171.673584 
z"/>
<path fill="#6899AE" opacity="1.000000" stroke="none" 
	d="
M520.200684,131.893646 
	C520.123840,130.134918 519.664795,127.824020 520.349426,127.411545 
	C525.170715,124.506882 530.193970,121.925323 535.249878,119.438042 
	C535.895935,119.120232 537.175171,119.808510 538.038513,120.263382 
	C541.287476,121.975296 545.347168,135.421494 542.943298,138.145844 
	C541.522766,139.755753 538.137634,141.103897 536.244751,140.536972 
	C531.437195,139.097092 526.948242,136.561996 522.392517,134.340775 
	C521.563416,133.936523 521.022095,132.942093 520.200684,131.893646 
z"/>
<path fill="#6899AE" opacity="1.000000" stroke="none" 
	d="
M28.575634,89.420357 
	C27.015480,91.381607 25.976559,93.395523 24.363974,94.700623 
	C22.598742,96.129280 20.098230,97.996048 18.296633,97.657555 
	C16.464544,97.313332 14.500551,94.762657 13.653501,92.735580 
	C12.223998,89.314621 11.254317,85.588760 10.820477,81.905235 
	C10.543667,79.554962 10.844359,76.358665 12.269651,74.841087 
	C13.339604,73.701859 16.647362,74.389381 18.892576,74.717354 
	C20.638258,74.972351 22.238262,76.097733 23.978243,76.540916 
	C31.017349,78.333794 32.750301,82.740677 28.575634,89.420357 
z"/>
<path fill="#6899AF" opacity="1.000000" stroke="none" 
	d="
M298.336426,167.444214 
	C301.940826,163.823822 304.933441,164.469482 307.943207,167.774002 
	C309.354034,169.322983 311.139984,170.557251 312.854889,171.797302 
	C318.018921,175.531494 317.632355,181.640350 312.059174,184.718491 
	C309.774414,185.980408 307.569733,187.403381 305.411346,188.874466 
	C301.630096,191.451675 296.336670,189.529922 296.421875,185.187088 
	C296.536072,179.366501 297.498291,173.562561 298.336426,167.444214 
z"/>
<path fill="#6899AE" opacity="1.000000" stroke="none" 
	d="
M716.138184,122.101807 
	C714.195129,123.659302 712.729126,125.386681 710.863525,126.264969 
	C708.568542,127.345352 705.523193,128.804504 703.584595,128.060684 
	C701.958923,127.436935 700.999939,123.969406 700.566895,121.610268 
	C699.959900,118.303429 699.824707,114.837723 700.045593,111.476654 
	C700.192505,109.240700 700.682007,106.139389 702.173462,105.126320 
	C703.702698,104.087639 706.818481,104.621544 708.911438,105.377136 
	C711.310425,106.243233 713.322510,108.151344 715.547852,109.534042 
	C720.494995,112.607849 720.824463,116.976006 716.138184,122.101807 
z"/>
<path fill="#6798AE" opacity="1.000000" stroke="none" 
	d="
M487.711853,162.086945 
	C485.758270,161.670715 484.145111,161.351990 482.654480,160.736511 
	C479.650543,159.496216 476.545593,158.365662 473.803467,156.670364 
	C471.742859,155.396362 468.753174,153.299637 468.767487,151.590866 
	C468.784912,149.511719 471.310333,147.238770 473.148346,145.460510 
	C474.512726,144.140533 476.411682,143.133179 478.250366,142.601471 
	C480.808685,141.861649 484.012482,140.647141 486.052582,141.578888 
	C488.118073,142.522247 489.355591,145.715500 490.475433,148.144699 
	C491.272003,149.872574 490.947021,152.104950 491.693268,153.871048 
	C493.449402,158.027222 492.163452,160.577698 487.711853,162.086945 
z"/>
<path fill="#6798AE" opacity="1.000000" stroke="none" 
	d="
M334.420288,227.307037 
	C334.581085,221.580093 334.640472,216.198456 335.325836,210.897736 
	C335.536163,209.270981 337.197968,207.043518 338.668213,206.574570 
	C340.372162,206.031143 342.867126,206.655014 344.531586,207.615906 
	C346.882385,208.973022 348.709625,211.204102 350.897491,212.883331 
	C355.607819,216.498566 355.105865,222.694839 349.842499,225.490784 
	C347.973236,226.483734 346.027863,227.447861 344.413147,228.783005 
	C340.345886,232.146072 338.063110,231.974228 334.420288,227.307037 
z"/>
<path fill="#6798AE" opacity="1.000000" stroke="none" 
	d="
M78.509048,104.420380 
	C81.821655,108.630180 80.592926,112.015640 77.533546,115.299835 
	C76.218132,116.711906 75.465630,118.746803 73.984520,119.881554 
	C72.059769,121.356201 69.414131,123.396690 67.542679,123.000771 
	C65.752388,122.622017 64.150208,119.612984 63.198135,117.439095 
	C61.910709,114.499504 60.985508,111.300537 60.542423,108.123917 
	C60.191010,105.604530 59.857010,101.967682 61.247345,100.637817 
	C62.604603,99.339584 66.275146,99.852509 68.717827,100.445282 
	C72.001312,101.242096 75.081070,102.878426 78.509048,104.420380 
z"/>
<path fill="#76A2B5" opacity="1.000000" stroke="none" 
	d="
M521.005859,118.771233 
	C520.442810,117.573921 519.626038,116.494240 519.856079,115.729515 
	C520.516724,113.533661 521.412964,111.336594 522.693176,109.466141 
	C522.921997,109.131844 526.516479,110.126152 526.681763,110.904961 
	C527.190613,113.302574 527.399170,116.116684 526.579407,118.348373 
	C525.685913,120.780754 523.294434,120.825790 521.005859,118.771233 
z"/>
<path fill="#73A0B4" opacity="1.000000" stroke="none" 
	d="
M21.327927,70.988060 
	C21.021215,70.213715 20.618460,69.494080 20.794077,69.301285 
	C22.667229,67.244865 24.473099,65.057945 26.678524,63.419949 
	C27.261852,62.986698 30.250231,64.315964 30.250000,64.835098 
	C30.249126,66.798271 30.035318,69.242546 28.859779,70.614433 
	C26.961781,72.829445 24.201384,73.826965 21.327927,70.988060 
z"/>
<path fill="#719EB2" opacity="1.000000" stroke="none" 
	d="
M721.645874,97.170746 
	C724.187317,99.528519 723.573975,101.891357 721.393494,103.195457 
	C719.466370,104.348000 716.890869,104.664955 714.588745,104.711327 
	C714.177490,104.719627 712.838074,101.161743 713.425842,100.026222 
	C714.982910,97.017921 717.775452,95.573875 721.645874,97.170746 
z"/>
<path fill="#719EB2" opacity="1.000000" stroke="none" 
	d="
M552.776611,122.180435 
	C556.464661,123.491425 556.553467,126.217491 554.606628,128.091675 
	C552.849670,129.783112 549.924561,130.261108 547.514526,131.274231 
	C547.121948,129.439896 545.803894,126.925659 546.541443,125.921623 
	C547.829346,124.168541 550.382019,123.344666 552.776611,122.180435 
z"/>
<path fill="#719EB2" opacity="1.000000" stroke="none" 
	d="
M771.949524,86.895142 
	C774.306580,84.464790 776.865723,81.798424 779.416748,85.177147 
	C780.334839,86.393089 779.117676,90.092865 777.788513,91.825851 
	C776.910095,92.971184 774.096069,92.632042 772.148682,92.957535 
	C772.014526,91.030991 771.880371,89.104431 771.949524,86.895142 
z"/>
<path fill="#719EB2" opacity="1.000000" stroke="none" 
	d="
M138.666580,81.397888 
	C136.363647,78.630196 137.626282,76.373779 139.872559,75.527412 
	C142.074722,74.697662 144.770782,75.178726 147.250076,75.084480 
	C147.304459,76.673317 148.028748,78.766357 147.285034,79.754517 
	C145.221680,82.496040 142.269928,83.447350 138.666580,81.397888 
z"/>
<path fill="#73A0B4" opacity="1.000000" stroke="none" 
	d="
M456.330444,184.724075 
	C456.400208,186.198715 456.755829,187.667404 456.178101,188.394638 
	C454.844788,190.072937 453.193542,191.628494 451.353638,192.676025 
	C450.935303,192.914215 448.190979,190.737061 448.308044,189.931931 
	C448.656128,187.536743 449.546692,185.002213 450.998108,183.117279 
	C451.438873,182.544815 454.390656,183.905869 456.330444,184.724075 
z"/>
<path fill="#73A0B4" opacity="1.000000" stroke="none" 
	d="
M463.832214,182.981796 
	C465.617432,183.526321 468.200073,184.052170 468.322021,184.922684 
	C468.587921,186.820984 468.065491,189.216034 466.974579,190.791412 
	C466.155121,191.974762 463.240509,193.167221 462.512726,192.636368 
	C461.183563,191.666794 460.004974,189.323318 460.209656,187.739822 
	C460.423553,186.084976 462.340973,184.650314 463.832214,182.981796 
z"/>
<path fill="#6D9CB1" opacity="1.000000" stroke="none" 
	d="
M679.395630,85.014008 
	C680.831055,80.963829 683.822998,80.881691 686.698547,82.124603 
	C688.243958,82.792587 689.611511,84.594604 690.267883,86.207115 
	C690.499329,86.775787 688.532166,88.980217 687.299377,89.262787 
	C683.845337,90.054550 680.785889,89.178940 679.395630,85.014008 
z"/>
<path fill="#719EB2" opacity="1.000000" stroke="none" 
	d="
M237.669128,129.388397 
	C237.567444,127.200951 237.690338,125.307663 237.813217,123.414375 
	C239.811996,123.656563 242.238739,123.290367 243.689835,124.311134 
	C245.156281,125.342720 246.473007,127.783447 246.397675,129.544525 
	C246.268005,132.576462 242.288544,132.608734 237.669128,129.388397 
z"/>
<path fill="#73A0B4" opacity="1.000000" stroke="none" 
	d="
M580.930237,59.780708 
	C581.206970,61.903267 581.929565,64.458084 580.974060,65.567322 
	C579.668396,67.083046 577.113281,68.000015 575.035522,68.114441 
	C574.307434,68.154549 572.371521,64.724060 572.782837,63.465096 
	C573.925049,59.969265 576.765686,58.366116 580.930237,59.780708 
z"/>
<path fill="#6F9DB2" opacity="1.000000" stroke="none" 
	d="
M31.624166,73.652313 
	C32.431381,72.583244 32.973988,71.400734 33.777130,71.184074 
	C35.862549,70.621544 38.084476,70.214714 40.199581,70.387291 
	C40.661812,70.425003 41.668316,73.935722 41.110153,74.467308 
	C39.309906,76.181870 37.001732,77.595757 34.642124,78.319405 
	C34.083736,78.490654 32.558662,75.509819 31.624166,73.652313 
z"/>
<path fill="#73A0B4" opacity="1.000000" stroke="none" 
	d="
M271.442383,175.485077 
	C271.191284,177.548996 270.745728,179.314346 270.300140,181.079712 
	C267.990753,180.246384 265.320007,179.858307 263.519928,178.397430 
	C262.578339,177.633270 263.166321,174.984390 263.063538,173.186737 
	C265.057220,173.200089 267.078156,173.028198 269.031555,173.315430 
	C269.844452,173.434952 270.513489,174.533295 271.442383,175.485077 
z"/>
<path fill="#719EB2" opacity="1.000000" stroke="none" 
	d="
M774.904236,109.014313 
	C776.087769,108.113815 777.110535,106.920212 777.993225,107.016098 
	C780.262390,107.262604 782.546997,107.907158 784.627136,108.836464 
	C784.985962,108.996773 784.753479,112.247574 784.137939,112.505600 
	C781.892273,113.446983 779.318115,114.232468 776.974976,113.999161 
	C776.063232,113.908379 775.436340,110.956978 774.904236,109.014313 
z"/>
<path fill="#76A2B5" opacity="1.000000" stroke="none" 
	d="
M399.180054,192.061600 
	C397.168945,192.552216 395.417633,192.759766 393.666290,192.967300 
	C393.450317,190.834915 392.515778,188.407120 393.234467,186.658997 
	C393.865753,185.123489 396.305206,183.511826 398.024292,183.421463 
	C401.164703,183.256363 401.742706,187.033966 399.180054,192.061600 
z"/>
<path fill="#729FB3" opacity="1.000000" stroke="none" 
	d="
M408.021484,184.238373 
	C409.876038,184.585831 412.690826,185.007812 412.730591,185.612259 
	C412.868439,187.709213 412.517090,190.171097 411.418182,191.901047 
	C410.670105,193.078720 407.600250,194.230240 406.915588,193.689133 
	C405.608948,192.656433 404.596191,190.356903 404.720490,188.676392 
	C404.830872,187.184250 406.646484,185.818253 408.021484,184.238373 
z"/>
<path fill="#73A0B4" opacity="1.000000" stroke="none" 
	d="
M759.367676,85.587547 
	C759.672485,84.782265 759.781494,84.124977 760.135071,83.943108 
	C762.152283,82.905556 764.176514,81.795158 766.333618,81.200562 
	C766.695618,81.100777 768.603210,83.819450 768.273987,84.514862 
	C767.218811,86.743240 765.859985,89.588844 763.865723,90.446754 
	C760.174438,92.034706 758.976318,89.375122 759.367676,85.587547 
z"/>
<path fill="#6F9DB2" opacity="1.000000" stroke="none" 
	d="
M779.601562,95.473000 
	C780.219055,95.168983 780.564636,94.879921 780.820923,94.944565 
	C783.017090,95.498558 785.197144,96.116592 787.382019,96.715485 
	C786.658203,98.355072 786.225952,101.127075 785.151245,101.403809 
	C782.747192,102.022842 779.348755,102.334747 777.585754,101.064262 
	C774.870789,99.107681 777.630798,97.185730 779.601562,95.473000 
z"/>
<path fill="#76A2B5" opacity="1.000000" stroke="none" 
	d="
M680.299805,65.441391 
	C679.532104,66.536102 679.026184,67.756004 678.239258,67.977463 
	C676.006348,68.605865 673.652527,69.077568 671.360474,69.022499 
	C670.818237,69.009483 669.579651,65.914871 669.946716,65.557404 
	C671.736267,63.814495 673.782532,61.896797 676.081604,61.235302 
	C678.519348,60.533951 680.617371,61.966343 680.299805,65.441391 
z"/>
<path fill="#729FB3" opacity="1.000000" stroke="none" 
	d="
M268.065552,158.048965 
	C267.251099,158.281647 266.635834,158.634567 266.312012,158.456741 
	C264.309479,157.357040 262.372528,156.137909 260.413788,154.958450 
	C261.270844,153.680130 261.981201,151.474274 263.014618,151.310852 
	C265.382874,150.936340 268.609985,150.680862 270.218811,151.966187 
	C273.201202,154.348892 271.049377,156.513626 268.065552,158.048965 
z"/>
<path fill="#6F9DB2" opacity="1.000000" stroke="none" 
	d="
M689.296692,71.618858 
	C689.918945,75.967438 686.986206,77.200294 684.053955,77.570099 
	C682.438293,77.773857 680.258301,76.683685 679.063599,75.462082 
	C678.593323,74.981171 679.696228,72.061722 680.813171,71.109154 
	C683.425110,68.881607 686.434082,68.477448 689.296692,71.618858 
z"/>
<path fill="#729FB3" opacity="1.000000" stroke="none" 
	d="
M146.835876,93.833458 
	C145.870926,94.113586 145.039536,94.584381 144.616058,94.342125 
	C142.458389,93.107796 140.316528,91.794441 138.436813,90.194275 
	C138.215317,90.005707 139.588837,86.880859 140.304230,86.847267 
	C142.763321,86.731758 145.624741,86.742821 147.652313,87.899025 
	C150.539703,89.545540 149.888885,91.960281 146.835876,93.833458 
z"/>
<path fill="#719EB2" opacity="1.000000" stroke="none" 
	d="
M715.309937,127.216797 
	C716.385132,126.707932 717.165344,126.152908 717.927856,126.176208 
	C721.318420,126.279800 724.578674,127.285622 724.638611,131.175522 
	C724.655762,132.287933 721.554932,134.357712 719.839966,134.405319 
	C715.806152,134.517273 714.054810,131.558334 715.309937,127.216797 
z"/>
<path fill="#73A0B4" opacity="1.000000" stroke="none" 
	d="
M311.415527,165.679321 
	C311.045105,161.026703 314.133240,159.919327 317.359161,159.591354 
	C318.665222,159.458557 321.238739,160.808456 321.289703,161.607727 
	C321.394958,163.258484 320.665192,165.581772 319.431335,166.568192 
	C316.952698,168.549713 313.974762,168.977722 311.415527,165.679321 
z"/>
<path fill="#6F9DB2" opacity="1.000000" stroke="none" 
	d="
M493.449463,132.618484 
	C495.525055,132.688232 497.306396,132.949402 499.087738,133.210571 
	C498.712708,135.188660 498.930634,137.671204 497.796936,139.003815 
	C496.648926,140.353210 494.019226,141.396378 492.295807,141.096283 
	C489.061859,140.533127 489.495026,136.705795 493.449463,132.618484 
z"/>
<path fill="#6F9DB2" opacity="1.000000" stroke="none" 
	d="
M576.649414,76.421097 
	C577.182617,71.329720 582.133484,69.068604 585.776672,71.886024 
	C588.023315,73.623398 587.976440,75.585358 585.783020,77.221794 
	C582.751221,79.483719 579.663696,79.552536 576.649414,76.421097 
z"/>
<path fill="#6F9DB2" opacity="1.000000" stroke="none" 
	d="
M494.454468,150.562042 
	C494.373901,149.559433 494.212891,148.815582 494.465881,148.260406 
	C495.966156,144.967880 498.378052,142.580933 502.124420,143.860840 
	C503.078674,144.186844 503.927612,147.625076 503.361328,149.052856 
	C501.879333,152.789536 498.148315,153.342728 494.454468,150.562042 
z"/>
<path fill="#729FB3" opacity="1.000000" stroke="none" 
	d="
M78.211395,119.871986 
	C79.068321,119.135948 79.669991,118.488937 80.407104,118.234833 
	C84.045952,116.980446 88.565170,118.453171 88.549332,121.206039 
	C88.540794,122.692085 86.688591,124.954399 85.180084,125.488853 
	C81.504738,126.791000 78.550461,124.302086 78.211395,119.871986 
z"/>
<path fill="#729FB3" opacity="1.000000" stroke="none" 
	d="
M550.875122,114.000320 
	C550.458740,115.438591 550.342041,116.980675 549.564758,117.466942 
	C547.753784,118.599838 545.672668,119.482430 543.590271,119.867577 
	C543.091064,119.959900 541.261597,117.145775 541.581299,116.639694 
	C542.991394,114.407837 544.814148,112.342247 546.877808,110.710045 
	C547.224731,110.435661 549.493713,112.591484 550.875122,114.000320 
z"/>
<path fill="#73A0B4" opacity="1.000000" stroke="none" 
	d="
M531.855530,107.987183 
	C533.650208,106.879753 535.774292,105.115013 536.795837,105.612816 
	C538.157288,106.276245 539.570190,108.859993 539.310730,110.327049 
	C538.962402,112.297066 537.425110,114.766281 535.702393,115.624435 
	C532.817322,117.061600 530.914856,113.552200 531.855530,107.987183 
z"/>
<path fill="#73A0B4" opacity="1.000000" stroke="none" 
	d="
M173.817261,102.788574 
	C176.424240,102.539833 178.734726,102.344452 180.989456,102.614540 
	C181.321991,102.654373 181.983398,105.522720 181.472092,106.008736 
	C179.804535,107.593819 177.797272,109.090569 175.650024,109.788322 
	C174.577362,110.136887 171.760941,108.695892 171.749466,108.029648 
	C171.720779,106.361099 172.842499,104.672768 173.817261,102.788574 
z"/>
<path fill="#729FB3" opacity="1.000000" stroke="none" 
	d="
M320.239929,170.934769 
	C321.229065,170.315948 322.031036,169.517731 322.662262,169.635422 
	C325.019684,170.074997 327.321106,170.814697 329.643555,171.441803 
	C329.033691,172.979141 328.613892,175.700821 327.778870,175.834824 
	C325.125671,176.260529 322.317719,175.721725 319.569519,175.555679 
	C319.704468,174.095734 319.839447,172.635788 320.239929,170.934769 
z"/>
<path fill="#6F9DB2" opacity="1.000000" stroke="none" 
	d="
M71.828568,97.398293 
	C69.759232,92.896645 72.355453,88.550629 76.721519,88.706024 
	C79.639595,88.809883 81.107994,90.522408 79.975243,93.332176 
	C78.609215,96.720581 76.092239,98.632942 71.828568,97.398293 
z"/>
<path fill="#719EB2" opacity="1.000000" stroke="none" 
	d="
M358.008606,222.297119 
	C359.460510,222.087524 360.936127,221.560699 361.666382,222.080658 
	C363.549896,223.421738 365.227386,225.128479 366.658508,226.947693 
	C366.877289,227.225845 365.271027,229.788513 364.642914,229.734573 
	C362.150421,229.520462 359.452118,229.111649 357.391754,227.854492 
	C356.664856,227.410995 357.545868,224.332306 358.008606,222.297119 
z"/>
<path fill="#6F9DB2" opacity="1.000000" stroke="none" 
	d="
M349.634583,207.339417 
	C349.348297,206.216553 348.933167,204.899994 349.252106,204.688080 
	C351.513733,203.185196 353.822327,201.585281 356.358368,200.773880 
	C357.042358,200.555038 358.561829,202.947571 359.697815,204.141418 
	C357.463837,205.706207 355.322113,207.443024 352.935425,208.723053 
	C352.283539,209.072678 350.895630,208.049957 349.634583,207.339417 
z"/>
<path fill="#6F9DB2" opacity="1.000000" stroke="none" 
	d="
M276.067383,167.167694 
	C275.199677,167.947922 274.490021,168.898483 273.878418,168.839096 
	C271.406158,168.599030 268.884247,168.270706 266.571503,167.442200 
	C266.045715,167.253845 265.778076,164.024124 266.258240,163.757996 
	C268.142120,162.713852 270.433472,161.630035 272.458588,161.815430 
	C274.885254,162.037598 277.356415,163.423721 276.067383,167.167694 
z"/>
<path fill="#73A0B4" opacity="1.000000" stroke="none" 
	d="
M325.872681,181.749573 
	C327.145721,183.605270 328.075226,185.302094 329.004730,186.998901 
	C327.126038,187.670609 325.070892,189.157349 323.415253,188.798874 
	C321.528137,188.390259 319.173553,186.658920 318.494934,184.925735 
	C317.331207,181.953674 320.229736,180.624161 325.872681,181.749573 
z"/>
<path fill="#73A0B4" opacity="1.000000" stroke="none" 
	d="
M476.922546,193.020782 
	C477.342438,194.525803 478.018036,196.526855 477.504791,196.902161 
	C475.402649,198.439346 473.025055,199.774567 470.548615,200.508118 
	C469.889801,200.703278 467.498444,197.677231 467.630310,197.512390 
	C469.163177,195.596329 470.867950,193.710587 472.883606,192.341537 
	C473.672241,191.805878 475.355682,192.587616 476.922546,193.020782 
z"/>
<path fill="#73A0B4" opacity="1.000000" stroke="none" 
	d="
M481.112549,128.053452 
	C482.941864,127.504875 485.537445,126.522552 485.967041,127.113884 
	C487.093567,128.664474 487.847168,130.961746 487.648193,132.845139 
	C487.496124,134.284561 485.543060,136.721512 484.603394,136.625992 
	C482.984406,136.461456 480.895996,134.968170 480.197998,133.474731 
	C479.582489,132.157837 480.596954,130.079163 481.112549,128.053452 
z"/>
<path fill="#73A0B4" opacity="1.000000" stroke="none" 
	d="
M570.049194,60.126900 
	C569.390869,60.888256 568.977661,61.710125 568.459900,61.782314 
	C566.369019,62.073853 564.245850,62.134243 562.134644,62.279968 
	C562.304443,60.319538 561.751221,57.427227 562.806702,56.608219 
	C564.568420,55.241222 567.359192,55.200356 569.716675,54.601196 
	C569.893188,56.348400 570.069702,58.095604 570.049194,60.126900 
z"/>
<path fill="#73A0B4" opacity="1.000000" stroke="none" 
	d="
M618.302856,83.538269 
	C616.335144,82.789780 614.723022,81.895020 613.110962,81.000259 
	C614.463623,78.921257 615.514587,76.496048 617.313110,74.928665 
	C618.063110,74.275063 621.783203,75.413841 621.792480,75.794952 
	C621.842834,77.867287 621.282715,79.997276 620.646729,82.017349 
	C620.455688,82.624107 619.346863,82.941864 618.302856,83.538269 
z"/>
<path fill="#6F9DB2" opacity="1.000000" stroke="none" 
	d="
M310.635681,195.278900 
	C310.529663,193.158493 310.680847,191.304901 310.832031,189.451309 
	C313.260895,189.984238 315.913269,190.102753 318.017456,191.237671 
	C318.965759,191.749146 318.820953,194.287247 319.172150,195.905838 
	C316.948608,196.170212 314.729523,196.515533 312.498169,196.638107 
	C311.984650,196.666306 311.429108,195.930130 310.635681,195.278900 
z"/>
<path fill="#6D9CB1" opacity="1.000000" stroke="none" 
	d="
M412.544067,212.369354 
	C412.442719,210.800049 412.159576,208.734009 412.751221,208.442291 
	C415.074554,207.296783 417.639038,206.436752 420.195160,206.114151 
	C420.811676,206.036362 422.581879,209.364014 422.393341,209.533112 
	C420.571075,211.167374 418.559143,212.714035 416.345398,213.725510 
	C415.488617,214.117004 413.977356,213.076172 412.544067,212.369354 
z"/>
<path fill="#719EB2" opacity="1.000000" stroke="none" 
	d="
M364.924377,217.272461 
	C364.110382,217.602875 363.573425,217.980957 363.174347,217.868713 
	C361.071594,217.277298 358.933044,216.701492 357.006683,215.725906 
	C356.745239,215.593491 357.262573,212.380432 358.013000,212.080841 
	C360.307037,211.164993 363.294281,209.945221 365.275360,210.722000 
	C369.085999,212.216141 368.136841,214.938232 364.924377,217.272461 
z"/>
<path fill="#6F9DB2" opacity="1.000000" stroke="none" 
	d="
M255.015533,186.157867 
	C254.145020,185.602127 253.243408,185.284073 253.143646,184.800598 
	C252.717072,182.732925 252.527023,180.616440 252.250702,178.517761 
	C254.092331,178.463837 256.638611,177.638519 257.615631,178.531036 
	C259.207245,179.985001 259.773804,182.561096 260.772919,184.663651 
	C258.966400,185.215576 257.159882,185.767502 255.015533,186.157867 
z"/>
<path fill="#6F9DB2" opacity="1.000000" stroke="none" 
	d="
M577.734619,82.159485 
	C579.538818,83.875565 580.955872,85.547920 582.372864,87.220261 
	C580.385559,88.138077 578.316833,89.907761 576.434387,89.727928 
	C574.644348,89.556923 573.049011,87.348404 571.368103,86.035728 
	C573.361206,84.729065 575.354370,83.422409 577.734619,82.159485 
z"/>
<path fill="#6F9DB2" opacity="1.000000" stroke="none" 
	d="
M474.907593,140.085480 
	C471.777832,141.972427 469.423431,140.914185 469.032959,138.064941 
	C468.728119,135.840591 470.080566,133.389130 470.696564,131.038589 
	C472.440430,131.654449 475.375214,131.923737 475.676575,132.959351 
	C476.276672,135.021698 475.429199,137.505310 474.907593,140.085480 
z"/>
<path fill="#6F9DB2" opacity="1.000000" stroke="none" 
	d="
M140.724014,99.295547 
	C139.472443,100.974487 138.000565,103.479858 136.829239,103.346443 
	C134.675278,103.101112 131.972031,101.781006 130.823303,100.036163 
	C129.234344,97.622658 131.175812,95.103325 133.758911,95.403664 
	C136.156693,95.682457 138.353806,97.687057 140.724014,99.295547 
z"/>
<path fill="#6D9CB1" opacity="1.000000" stroke="none" 
	d="
M35.446449,83.334549 
	C36.725834,82.596054 37.905273,81.522339 38.753361,81.739944 
	C40.970695,82.308907 43.120281,83.313263 45.090599,84.489548 
	C45.387577,84.666847 44.819702,87.556206 44.238792,87.719238 
	C41.872936,88.383263 39.256680,88.957275 36.926128,88.524017 
	C36.072853,88.365387 35.756683,85.317604 35.446449,83.334549 
z"/>
<path fill="#729FB3" opacity="1.000000" stroke="none" 
	d="
M235.020538,103.789047 
	C236.111526,102.791100 236.914734,101.781052 237.932053,101.469048 
	C240.928787,100.549919 244.279358,100.424843 245.314194,103.908195 
	C245.651627,105.044044 243.038864,108.148911 241.342209,108.558395 
	C238.255051,109.303490 234.496048,109.193245 235.020538,103.789047 
z"/>
<path fill="#6F9DB2" opacity="1.000000" stroke="none" 
	d="
M234.062271,130.869339 
	C234.338623,132.938507 234.390518,134.722473 234.442413,136.506454 
	C232.581772,136.515320 230.197403,137.240570 228.989105,136.357178 
	C227.369125,135.172821 225.756393,132.744003 225.756226,130.849350 
	C225.755905,127.465195 229.787827,127.352180 234.062271,130.869339 
z"/>
<path fill="#719EB2" opacity="1.000000" stroke="none" 
	d="
M184.672455,129.591736 
	C183.253571,127.804771 182.203720,126.165398 181.153885,124.526031 
	C182.745422,123.599663 184.556641,121.680969 185.878296,121.973572 
	C187.995407,122.442284 191.231964,124.174782 191.449234,125.729034 
	C192.122482,130.544983 188.221527,129.964508 184.672455,129.591736 
z"/>
<path fill="#729FB3" opacity="1.000000" stroke="none" 
	d="
M249.371155,113.483368 
	C249.677292,115.324066 250.291779,117.879868 249.570953,118.338943 
	C247.940201,119.377525 245.555130,119.945259 243.659836,119.624207 
	C242.200668,119.377045 241.020370,117.483414 239.716080,116.321899 
	C240.932358,114.960197 241.930542,112.884071 243.423386,112.428345 
	C245.069992,111.925697 247.170517,112.910011 249.371155,113.483368 
z"/>
<path fill="#6D9CB1" opacity="1.000000" stroke="none" 
	d="
M673.684326,97.528877 
	C672.931824,95.594521 672.486633,93.875252 672.041443,92.155983 
	C674.053955,91.796936 676.319397,90.705475 678.006836,91.288063 
	C679.642822,91.852890 681.516968,93.996925 681.804932,95.698219 
	C682.315613,98.714645 678.965515,99.542297 673.684326,97.528877 
z"/>
<path fill="#6D9CB1" opacity="1.000000" stroke="none" 
	d="
M37.365429,93.442413 
	C37.986374,95.311234 38.297832,96.979996 38.609291,98.648750 
	C36.132748,98.908318 33.575024,99.633141 31.215591,99.221474 
	C30.117146,99.029816 29.403374,96.633446 28.515236,95.236450 
	C30.260015,94.249489 31.921064,93.015755 33.786015,92.382957 
	C34.676292,92.080879 35.953819,92.920090 37.365429,93.442413 
z"/>
<path fill="#6F9DB2" opacity="1.000000" stroke="none" 
	d="
M137.778793,72.065697 
	C137.103226,72.586761 136.699677,73.081337 136.281540,73.094002 
	C134.119095,73.159492 131.917282,73.301559 129.816589,72.926903 
	C129.369125,72.847099 128.686478,70.091133 129.139908,69.667130 
	C130.830551,68.086166 132.810974,66.227722 134.936996,65.828743 
	C138.718201,65.119141 139.883774,67.664978 137.778793,72.065697 
z"/>
<path fill="#729FB3" opacity="1.000000" stroke="none" 
	d="
M420.720825,199.828857 
	C420.007141,200.311081 419.582123,200.806778 419.169617,200.796600 
	C417.028870,200.743668 414.891296,200.561676 412.752625,200.424637 
	C412.955719,198.773575 412.591797,196.202972 413.476562,195.657425 
	C415.495453,194.412613 418.419159,193.148636 420.441101,193.734863 
	C423.677216,194.673157 422.961609,197.398193 420.720825,199.828857 
z"/>
<path fill="#73A0B4" opacity="1.000000" stroke="none" 
	d="
M92.188629,107.500084 
	C93.229897,109.158867 93.916328,110.658989 94.602760,112.159119 
	C92.606293,113.065414 90.618683,114.637550 88.610535,114.664238 
	C87.045265,114.685051 85.140892,113.024612 84.048363,111.603157 
	C83.675636,111.118217 85.011459,108.409454 86.104912,107.920471 
	C87.768227,107.176651 89.900620,107.481796 92.188629,107.500084 
z"/>
<path fill="#719EB2" opacity="1.000000" stroke="none" 
	d="
M186.972778,109.722214 
	C188.509384,111.052780 190.539032,112.329819 190.619186,113.719330 
	C190.689011,114.929710 188.763916,116.955482 187.349594,117.376984 
	C185.510422,117.925087 183.304672,117.243057 181.256683,117.090462 
	C181.419601,115.355484 181.014847,113.200310 181.902191,112.001556 
	C182.822800,110.757866 184.994461,110.440201 186.972778,109.722214 
z"/>
<path fill="#6D9CB1" opacity="1.000000" stroke="none" 
	d="
M181.384247,132.423508 
	C182.136627,134.352859 182.578491,136.064606 183.020355,137.776337 
	C180.854874,138.061951 178.450394,139.050598 176.596283,138.420288 
	C174.989258,137.873993 172.641663,135.045593 172.984222,133.999863 
	C174.440857,129.553177 177.900803,130.849899 181.384247,132.423508 
z"/>
<path fill="#719EB2" opacity="1.000000" stroke="none" 
	d="
M471.241943,212.824677 
	C469.712982,211.614944 467.382263,209.790039 467.619019,209.351532 
	C468.547516,207.632034 470.057922,205.723541 471.791595,205.092545 
	C473.330536,204.532425 475.985992,204.961868 477.203064,206.030945 
	C479.690491,208.215820 476.807251,211.709641 471.241943,212.824677 
z"/>
<path fill="#729FB3" opacity="1.000000" stroke="none" 
	d="
M88.639236,95.202972 
	C91.925903,97.125168 91.649185,99.775253 89.487808,101.376877 
	C87.661194,102.730423 84.850990,102.756607 82.476105,103.370255 
	C82.265160,101.560883 81.221008,98.934837 82.022156,98.117462 
	C83.543411,96.565369 86.121147,96.048767 88.639236,95.202972 
z"/>
<path fill="#6D9CB1" opacity="1.000000" stroke="none" 
	d="
M357.315643,234.386963 
	C357.478210,238.029678 355.031677,239.013641 352.793274,238.173767 
	C350.621277,237.358810 348.992065,235.097305 347.124451,233.471069 
	C348.228790,232.303131 349.746460,229.957870 350.364624,230.174896 
	C352.799225,231.029602 354.951080,232.689789 357.315643,234.386963 
z"/>
<path fill="#6F9DB2" opacity="1.000000" stroke="none" 
	d="
M627.279053,102.937317 
	C629.128784,103.153816 631.038818,102.947327 631.890076,103.799042 
	C632.913757,104.823280 633.746460,107.898987 633.432312,108.092735 
	C631.613464,109.214371 629.387878,110.401115 627.388428,110.265106 
	C625.915833,110.164940 624.578613,108.076187 623.181030,106.873528 
	C624.410767,105.576698 625.640564,104.279877 627.279053,102.937317 
z"/>
<path fill="#729FB3" opacity="1.000000" stroke="none" 
	d="
M632.005249,86.957397 
	C629.339417,87.286560 626.962708,87.358856 624.585999,87.431152 
	C625.307922,85.292992 625.473816,82.558723 626.926453,81.203888 
	C628.104858,80.104729 630.828613,80.662354 632.866943,80.485176 
	C632.676086,82.556953 632.485229,84.628738 632.005249,86.957397 
z"/>
<path fill="#6F9DB2" opacity="1.000000" stroke="none" 
	d="
M631.358582,98.981934 
	C630.113159,97.264473 629.268311,95.614670 628.423401,93.964874 
	C630.601013,93.122780 632.781433,91.661491 634.955078,91.671654 
	C636.251587,91.677711 637.537354,93.992981 638.827942,95.270157 
	C637.298584,96.533951 635.843628,97.910042 634.199280,99.000420 
	C633.626770,99.380074 632.586060,99.053581 631.358582,98.981934 
z"/>
<path fill="#6F9DB2" opacity="1.000000" stroke="none" 
	d="
M723.744446,123.471085 
	C723.424072,121.625488 722.839600,118.948227 723.481201,118.612251 
	C725.186462,117.719215 727.553894,117.284584 729.400635,117.731316 
	C730.793823,118.068329 732.807312,120.144547 732.699707,121.270279 
	C732.571228,122.614082 730.650452,124.435913 729.182739,124.822319 
	C727.670959,125.220306 725.769958,124.140160 723.744446,123.471085 
z"/>
<path fill="#6D9CB1" opacity="1.000000" stroke="none" 
	d="
M731.038940,110.990906 
	C729.939697,111.794617 729.056763,112.784332 728.274597,112.710258 
	C726.151917,112.509224 724.071960,111.857224 721.975037,111.384010 
	C722.307190,109.923424 722.229492,107.546120 723.050598,107.178940 
	C725.266663,106.187935 727.865662,106.052925 730.312683,105.578262 
	C730.642212,107.282745 730.971741,108.987221 731.038940,110.990906 
z"/>
</svg>